<svg class="rich-terminal" viewBox="0 0 994 635.5999999999999" xmlns="http://www.w3.org/2000/svg">
    <!-- Generated with Rich https://www.textualize.io -->
    <style>

    @font-face {
        font-family: "Fira Code";
        src: local("FiraCode-Regular"),
                url("https://cdnjs.cloudflare.com/ajax/libs/firacode/6.2.0/woff2/FiraCode-Regular.woff2") format("woff2"),
                url("https://cdnjs.cloudflare.com/ajax/libs/firacode/6.2.0/woff/FiraCode-Regular.woff") format("woff");
        font-style: normal;
        font-weight: 400;
    }
    @font-face {
        font-family: "Fira Code";
        src: local("FiraCode-Bold"),
                url("https://cdnjs.cloudflare.com/ajax/libs/firacode/6.2.0/woff2/FiraCode-Bold.woff2") format("woff2"),
                url("https://cdnjs.cloudflare.com/ajax/libs/firacode/6.2.0/woff/FiraCode-Bold.woff") format("woff");
        font-style: bold;
        font-weight: 700;
    }

    .terminal-1253336147-matrix {
        font-family: Fira Code, monospace;
        font-size: 20px;
        line-height: 24.4px;
        font-variant-east-asian: full-width;
    }

    .terminal-1253336147-title {
        font-size: 18px;
        font-weight: bold;
        font-family: arial;
    }

    .terminal-1253336147-r1 { fill: #c5c8c6 }
.terminal-1253336147-r2 { fill: #f0f0f0 }
.terminal-1253336147-r3 { fill: #d1d1d1 }
.terminal-1253336147-r4 { fill: #33d9b2 }
.terminal-1253336147-r5 { fill: #ff9f43 }
.terminal-1253336147-r6 { fill: #f0f0f0;font-weight: bold }
.terminal-1253336147-r7 { fill: #262626 }
.terminal-1253336147-r8 { fill: #003054 }
.terminal-1253336147-r9 { fill: #1e1e1e }
.terminal-1253336147-r10 { fill: #454545 }
.terminal-1253336147-r11 { fill: #ababab }
.terminal-1253336147-r12 { fill: #10ac84 }
.terminal-1253336147-r13 { fill: #006266 }
.terminal-1253336147-r14 { fill: #000000 }
.terminal-1253336147-r15 { fill: #4b4b4b }
    </style>

    <defs>
    <clipPath id="terminal-1253336147-clip-terminal">
      <rect x="0" y="0" width="975.0" height="584.5999999999999" />
    </clipPath>
    <clipPath id="terminal-1253336147-line-0">
    <rect x="0" y="1.5" width="976" height="24.65"/>
            </clipPath>
<clipPath id="terminal-1253336147-line-1">
    <rect x="0" y="25.9" width="976" height="24.65"/>
            </clipPath>
<clipPath id="terminal-1253336147-line-2">
    <rect x="0" y="50.3" width="976" height="24.65"/>
            </clipPath>
<clipPath id="terminal-1253336147-line-3">
    <rect x="0" y="74.7" width="976" height="24.65"/>
            </clipPath>
<clipPath id="terminal-1253336147-line-4">
    <rect x="0" y="99.1" width="976" height="24.65"/>
            </clipPath>
<clipPath id="terminal-1253336147-line-5">
    <rect x="0" y="123.5" width="976" height="24.65"/>
            </clipPath>
<clipPath id="terminal-1253336147-line-6">
    <rect x="0" y="147.9" width="976" height="24.65"/>
            </clipPath>
<clipPath id="terminal-1253336147-line-7">
    <rect x="0" y="172.3" width="976" height="24.65"/>
            </clipPath>
<clipPath id="terminal-1253336147-line-8">
    <rect x="0" y="196.7" width="976" height="24.65"/>
            </clipPath>
<clipPath id="terminal-1253336147-line-9">
    <rect x="0" y="221.1" width="976" height="24.65"/>
            </clipPath>
<clipPath id="terminal-1253336147-line-10">
    <rect x="0" y="245.5" width="976" height="24.65"/>
            </clipPath>
<clipPath id="terminal-1253336147-line-11">
    <rect x="0" y="269.9" width="976" height="24.65"/>
            </clipPath>
<clipPath id="terminal-1253336147-line-12">
    <rect x="0" y="294.3" width="976" height="24.65"/>
            </clipPath>
<clipPath id="terminal-1253336147-line-13">
    <rect x="0" y="318.7" width="976" height="24.65"/>
            </clipPath>
<clipPath id="terminal-1253336147-line-14">
    <rect x="0" y="343.1" width="976" height="24.65"/>
            </clipPath>
<clipPath id="terminal-1253336147-line-15">
    <rect x="0" y="367.5" width="976" height="24.65"/>
            </clipPath>
<clipPath id="terminal-1253336147-line-16">
    <rect x="0" y="391.9" width="976" height="24.65"/>
            </clipPath>
<clipPath id="terminal-1253336147-line-17">
    <rect x="0" y="416.3" width="976" height="24.65"/>
            </clipPath>
<clipPath id="terminal-1253336147-line-18">
    <rect x="0" y="440.7" width="976" height="24.65"/>
            </clipPath>
<clipPath id="terminal-1253336147-line-19">
    <rect x="0" y="465.1" width="976" height="24.65"/>
            </clipPath>
<clipPath id="terminal-1253336147-line-20">
    <rect x="0" y="489.5" width="976" height="24.65"/>
            </clipPath>
<clipPath id="terminal-1253336147-line-21">
    <rect x="0" y="513.9" width="976" height="24.65"/>
            </clipPath>
<clipPath id="terminal-1253336147-line-22">
    <rect x="0" y="538.3" width="976" height="24.65"/>
            </clipPath>
    </defs>

    <rect fill="#292929" stroke="rgba(255,255,255,0.35)" stroke-width="1" x="1" y="1" width="992" height="633.6" rx="8"/><text class="terminal-1253336147-title" fill="#c5c8c6" text-anchor="middle" x="496" y="27">MulgogiApp</text>
            <g transform="translate(26,22)">
            <circle cx="0" cy="0" r="7" fill="#ff5f57"/>
            <circle cx="22" cy="0" r="7" fill="#febc2e"/>
            <circle cx="44" cy="0" r="7" fill="#28c840"/>
            </g>
        
    <g transform="translate(9, 41)" clip-path="url(#terminal-1253336147-clip-terminal)">
    <rect fill="#262626" x="0" y="1.5" width="12.2" height="24.65" shape-rendering="crispEdges"/><rect fill="#262626" x="12.2" y="1.5" width="12.2" height="24.65" shape-rendering="crispEdges"/><rect fill="#262626" x="24.4" y="1.5" width="12.2" height="24.65" shape-rendering="crispEdges"/><rect fill="#262626" x="36.6" y="1.5" width="48.8" height="24.65" shape-rendering="crispEdges"/><rect fill="#262626" x="85.4" y="1.5" width="12.2" height="24.65" shape-rendering="crispEdges"/><rect fill="#262626" x="97.6" y="1.5" width="305" height="24.65" shape-rendering="crispEdges"/><rect fill="#262626" x="402.6" y="1.5" width="122" height="24.65" shape-rendering="crispEdges"/><rect fill="#262626" x="524.6" y="1.5" width="305" height="24.65" shape-rendering="crispEdges"/><rect fill="#262626" x="829.6" y="1.5" width="12.2" height="24.65" shape-rendering="crispEdges"/><rect fill="#262626" x="841.8" y="1.5" width="97.6" height="24.65" shape-rendering="crispEdges"/><rect fill="#262626" x="939.4" y="1.5" width="12.2" height="24.65" shape-rendering="crispEdges"/><rect fill="#000000" x="951.6" y="1.5" width="24.4" height="24.65" shape-rendering="crispEdges"/><rect fill="#262626" x="0" y="25.9" width="12.2" height="24.65" shape-rendering="crispEdges"/><rect fill="#262626" x="12.2" y="25.9" width="24.4" height="24.65" shape-rendering="crispEdges"/><rect fill="#262626" x="36.6" y="25.9" width="451.4" height="24.65" shape-rendering="crispEdges"/><rect fill="#262626" x="488" y="25.9" width="0" height="24.65" shape-rendering="crispEdges"/><rect fill="#262626" x="488" y="25.9" width="451.4" height="24.65" shape-rendering="crispEdges"/><rect fill="#262626" x="939.4" y="25.9" width="12.2" height="24.65" shape-rendering="crispEdges"/><rect fill="#000000" x="951.6" y="25.9" width="24.4" height="24.65" shape-rendering="crispEdges"/><rect fill="#262626" x="0" y="50.3" width="12.2" height="24.65" shape-rendering="crispEdges"/><rect fill="#262626" x="12.2" y="50.3" width="24.4" height="24.65" shape-rendering="crispEdges"/><rect fill="#262626" x="36.6" y="50.3" width="24.4" height="24.65" shape-rendering="crispEdges"/><rect fill="#262626" x="61" y="50.3" width="122" height="24.65" shape-rendering="crispEdges"/><rect fill="#262626" x="183" y="50.3" width="24.4" height="24.65" shape-rendering="crispEdges"/><rect fill="#262626" x="207.4" y="50.3" width="48.8" height="24.65" shape-rendering="crispEdges"/><rect fill="#262626" x="256.2" y="50.3" width="244" height="24.65" shape-rendering="crispEdges"/><rect fill="#262626" x="500.2" y="50.3" width="414.8" height="24.65" shape-rendering="crispEdges"/><rect fill="#003054" x="915" y="50.3" width="24.4" height="24.65" shape-rendering="crispEdges"/><rect fill="#262626" x="939.4" y="50.3" width="12.2" height="24.65" shape-rendering="crispEdges"/><rect fill="#000000" x="951.6" y="50.3" width="24.4" height="24.65" shape-rendering="crispEdges"/><rect fill="#262626" x="0" y="74.7" width="12.2" height="24.65" shape-rendering="crispEdges"/><rect fill="#262626" x="12.2" y="74.7" width="24.4" height="24.65" shape-rendering="crispEdges"/><rect fill="#262626" x="36.6" y="74.7" width="12.2" height="24.65" shape-rendering="crispEdges"/><rect fill="#262626" x="48.8" y="74.7" width="134.2" height="24.65" shape-rendering="crispEdges"/><rect fill="#262626" x="183" y="74.7" width="24.4" height="24.65" shape-rendering="crispEdges"/><rect fill="#262626" x="207.4" y="74.7" width="707.6" height="24.65" shape-rendering="crispEdges"/><rect fill="#003054" x="915" y="74.7" width="24.4" height="24.65" shape-rendering="crispEdges"/><rect fill="#262626" x="939.4" y="74.7" width="12.2" height="24.65" shape-rendering="crispEdges"/><rect fill="#003054" x="951.6" y="74.7" width="24.4" height="24.65" shape-rendering="crispEdges"/><rect fill="#262626" x="0" y="99.1" width="12.2" height="24.65" shape-rendering="crispEdges"/><rect fill="#262626" x="12.2" y="99.1" width="24.4" height="24.65" shape-rendering="crispEdges"/><rect fill="#262626" x="36.6" y="99.1" width="24.4" height="24.65" shape-rendering="crispEdges"/><rect fill="#262626" x="61" y="99.1" width="122" height="24.65" shape-rendering="crispEdges"/><rect fill="#262626" x="183" y="99.1" width="24.4" height="24.65" shape-rendering="crispEdges"/><rect fill="#262626" x="207.4" y="99.1" width="61" height="24.65" shape-rendering="crispEdges"/><rect fill="#262626" x="268.4" y="99.1" width="97.6" height="24.65" shape-rendering="crispEdges"/><rect fill="#262626" x="366" y="99.1" width="549" height="24.65" shape-rendering="crispEdges"/><rect fill="#003054" x="915" y="99.1" width="24.4" height="24.65" shape-rendering="crispEdges"/><rect fill="#262626" x="939.4" y="99.1" width="12.2" height="24.65" shape-rendering="crispEdges"/><rect fill="#003054" x="951.6" y="99.1" width="24.4" height="24.65" shape-rendering="crispEdges"/><rect fill="#262626" x="0" y="123.5" width="12.2" height="24.65" shape-rendering="crispEdges"/><rect fill="#262626" x="12.2" y="123.5" width="24.4" height="24.65" shape-rendering="crispEdges"/><rect fill="#262626" x="36.6" y="123.5" width="12.2" height="24.65" shape-rendering="crispEdges"/><rect fill="#262626" x="48.8" y="123.5" width="36.6" height="24.65" shape-rendering="crispEdges"/><rect fill="#262626" x="85.4" y="123.5" width="12.2" height="24.65" shape-rendering="crispEdges"/><rect fill="#262626" x="97.6" y="123.5" width="36.6" height="24.65" shape-rendering="crispEdges"/><rect fill="#262626" x="134.2" y="123.5" width="12.2" height="24.65" shape-rendering="crispEdges"/><rect fill="#262626" x="146.4" y="123.5" width="36.6" height="24.65" shape-rendering="crispEdges"/><rect fill="#262626" x="183" y="123.5" width="24.4" height="24.65" shape-rendering="crispEdges"/><rect fill="#262626" x="207.4" y="123.5" width="707.6" height="24.65" shape-rendering="crispEdges"/><rect fill="#003054" x="915" y="123.5" width="24.4" height="24.65" shape-rendering="crispEdges"/><rect fill="#262626" x="939.4" y="123.5" width="12.2" height="24.65" shape-rendering="crispEdges"/><rect fill="#003054" x="951.6" y="123.5" width="24.4" height="24.65" shape-rendering="crispEdges"/><rect fill="#262626" x="0" y="147.9" width="12.2" height="24.65" shape-rendering="crispEdges"/><rect fill="#262626" x="12.2" y="147.9" width="24.4" height="24.65" shape-rendering="crispEdges"/><rect fill="#262626" x="36.6" y="147.9" width="24.4" height="24.65" shape-rendering="crispEdges"/><rect fill="#262626" x="61" y="147.9" width="122" height="24.65" shape-rendering="crispEdges"/><rect fill="#262626" x="183" y="147.9" width="24.4" height="24.65" shape-rendering="crispEdges"/><rect fill="#262626" x="207.4" y="147.9" width="61" height="24.65" shape-rendering="crispEdges"/><rect fill="#262626" x="268.4" y="147.9" width="97.6" height="24.65" shape-rendering="crispEdges"/><rect fill="#262626" x="366" y="147.9" width="549" height="24.65" shape-rendering="crispEdges"/><rect fill="#003054" x="915" y="147.9" width="24.4" height="24.65" shape-rendering="crispEdges"/><rect fill="#262626" x="939.4" y="147.9" width="12.2" height="24.65" shape-rendering="crispEdges"/><rect fill="#003054" x="951.6" y="147.9" width="24.4" height="24.65" shape-rendering="crispEdges"/><rect fill="#262626" x="0" y="172.3" width="12.2" height="24.65" shape-rendering="crispEdges"/><rect fill="#262626" x="12.2" y="172.3" width="24.4" height="24.65" shape-rendering="crispEdges"/><rect fill="#262626" x="36.6" y="172.3" width="12.2" height="24.65" shape-rendering="crispEdges"/><rect fill="#262626" x="48.8" y="172.3" width="36.6" height="24.65" shape-rendering="crispEdges"/><rect fill="#262626" x="85.4" y="172.3" width="12.2" height="24.65" shape-rendering="crispEdges"/><rect fill="#262626" x="97.6" y="172.3" width="85.4" height="24.65" shape-rendering="crispEdges"/><rect fill="#262626" x="183" y="172.3" width="24.4" height="24.65" shape-rendering="crispEdges"/><rect fill="#262626" x="207.4" y="172.3" width="707.6" height="24.65" shape-rendering="crispEdges"/><rect fill="#003054" x="915" y="172.3" width="24.4" height="24.65" shape-rendering="crispEdges"/><rect fill="#262626" x="939.4" y="172.3" width="12.2" height="24.65" shape-rendering="crispEdges"/><rect fill="#003054" x="951.6" y="172.3" width="24.4" height="24.65" shape-rendering="crispEdges"/><rect fill="#262626" x="0" y="196.7" width="12.2" height="24.65" shape-rendering="crispEdges"/><rect fill="#262626" x="12.2" y="196.7" width="24.4" height="24.65" shape-rendering="crispEdges"/><rect fill="#262626" x="36.6" y="196.7" width="12.2" height="24.65" shape-rendering="crispEdges"/><rect fill="#262626" x="48.8" y="196.7" width="134.2" height="24.65" shape-rendering="crispEdges"/><rect fill="#262626" x="183" y="196.7" width="24.4" height="24.65" shape-rendering="crispEdges"/><rect fill="#262626" x="207.4" y="196.7" width="61" height="24.65" shape-rendering="crispEdges"/><rect fill="#262626" x="268.4" y="196.7" width="97.6" height="24.65" shape-rendering="crispEdges"/><rect fill="#262626" x="366" y="196.7" width="549" height="24.65" shape-rendering="crispEdges"/><rect fill="#003054" x="915" y="196.7" width="24.4" height="24.65" shape-rendering="crispEdges"/><rect fill="#262626" x="939.4" y="196.7" width="12.2" height="24.65" shape-rendering="crispEdges"/><rect fill="#003054" x="951.6" y="196.7" width="24.4" height="24.65" shape-rendering="crispEdges"/><rect fill="#262626" x="0" y="221.1" width="12.2" height="24.65" shape-rendering="crispEdges"/><rect fill="#262626" x="12.2" y="221.1" width="24.4" height="24.65" shape-rendering="crispEdges"/><rect fill="#262626" x="36.6" y="221.1" width="12.2" height="24.65" shape-rendering="crispEdges"/><rect fill="#262626" x="48.8" y="221.1" width="134.2" height="24.65" shape-rendering="crispEdges"/><rect fill="#262626" x="183" y="221.1" width="24.4" height="24.65" shape-rendering="crispEdges"/><rect fill="#262626" x="207.4" y="221.1" width="707.6" height="24.65" shape-rendering="crispEdges"/><rect fill="#003054" x="915" y="221.1" width="24.4" height="24.65" shape-rendering="crispEdges"/><rect fill="#262626" x="939.4" y="221.1" width="12.2" height="24.65" shape-rendering="crispEdges"/><rect fill="#003054" x="951.6" y="221.1" width="24.4" height="24.65" shape-rendering="crispEdges"/><rect fill="#262626" x="0" y="245.5" width="12.2" height="24.65" shape-rendering="crispEdges"/><rect fill="#262626" x="12.2" y="245.5" width="24.4" height="24.65" shape-rendering="crispEdges"/><rect fill="#262626" x="36.6" y="245.5" width="24.4" height="24.65" shape-rendering="crispEdges"/><rect fill="#262626" x="61" y="245.5" width="122" height="24.65" shape-rendering="crispEdges"/><rect fill="#262626" x="183" y="245.5" width="24.4" height="24.65" shape-rendering="crispEdges"/><rect fill="#262626" x="207.4" y="245.5" width="48.8" height="24.65" shape-rendering="crispEdges"/><rect fill="#262626" x="256.2" y="245.5" width="244" height="24.65" shape-rendering="crispEdges"/><rect fill="#262626" x="500.2" y="245.5" width="414.8" height="24.65" shape-rendering="crispEdges"/><rect fill="#003054" x="915" y="245.5" width="24.4" height="24.65" shape-rendering="crispEdges"/><rect fill="#262626" x="939.4" y="245.5" width="12.2" height="24.65" shape-rendering="crispEdges"/><rect fill="#003054" x="951.6" y="245.5" width="24.4" height="24.65" shape-rendering="crispEdges"/><rect fill="#262626" x="0" y="269.9" width="12.2" height="24.65" shape-rendering="crispEdges"/><rect fill="#262626" x="12.2" y="269.9" width="24.4" height="24.65" shape-rendering="crispEdges"/><rect fill="#262626" x="36.6" y="269.9" width="12.2" height="24.65" shape-rendering="crispEdges"/><rect fill="#262626" x="48.8" y="269.9" width="36.6" height="24.65" shape-rendering="crispEdges"/><rect fill="#262626" x="85.4" y="269.9" width="12.2" height="24.65" shape-rendering="crispEdges"/><rect fill="#262626" x="97.6" y="269.9" width="97.6" height="24.65" shape-rendering="crispEdges"/><rect fill="#262626" x="195.2" y="269.9" width="12.2" height="24.65" shape-rendering="crispEdges"/><rect fill="#262626" x="207.4" y="269.9" width="707.6" height="24.65" shape-rendering="crispEdges"/><rect fill="#003054" x="915" y="269.9" width="24.4" height="24.65" shape-rendering="crispEdges"/><rect fill="#262626" x="939.4" y="269.9" width="12.2" height="24.65" shape-rendering="crispEdges"/><rect fill="#003054" x="951.6" y="269.9" width="24.4" height="24.65" shape-rendering="crispEdges"/><rect fill="#262626" x="0" y="294.3" width="12.2" height="24.65" shape-rendering="crispEdges"/><rect fill="#262626" x="12.2" y="294.3" width="24.4" height="24.65" shape-rendering="crispEdges"/><rect fill="#262626" x="36.6" y="294.3" width="24.4" height="24.65" shape-rendering="crispEdges"/><rect fill="#262626" x="61" y="294.3" width="122" height="24.65" shape-rendering="crispEdges"/><rect fill="#262626" x="183" y="294.3" width="24.4" height="24.65" shape-rendering="crispEdges"/><rect fill="#262626" x="207.4" y="294.3" width="61" height="24.65" shape-rendering="crispEdges"/><rect fill="#262626" x="268.4" y="294.3" width="109.8" height="24.65" shape-rendering="crispEdges"/><rect fill="#262626" x="378.2" y="294.3" width="536.8" height="24.65" shape-rendering="crispEdges"/><rect fill="#003054" x="915" y="294.3" width="24.4" height="24.65" shape-rendering="crispEdges"/><rect fill="#262626" x="939.4" y="294.3" width="12.2" height="24.65" shape-rendering="crispEdges"/><rect fill="#003054" x="951.6" y="294.3" width="24.4" height="24.65" shape-rendering="crispEdges"/><rect fill="#262626" x="0" y="318.7" width="12.2" height="24.65" shape-rendering="crispEdges"/><rect fill="#262626" x="12.2" y="318.7" width="24.4" height="24.65" shape-rendering="crispEdges"/><rect fill="#262626" x="36.6" y="318.7" width="12.2" height="24.65" shape-rendering="crispEdges"/><rect fill="#262626" x="48.8" y="318.7" width="36.6" height="24.65" shape-rendering="crispEdges"/><rect fill="#262626" x="85.4" y="318.7" width="12.2" height="24.65" shape-rendering="crispEdges"/><rect fill="#262626" x="97.6" y="318.7" width="36.6" height="24.65" shape-rendering="crispEdges"/><rect fill="#262626" x="134.2" y="318.7" width="12.2" height="24.65" shape-rendering="crispEdges"/><rect fill="#262626" x="146.4" y="318.7" width="48.8" height="24.65" shape-rendering="crispEdges"/><rect fill="#262626" x="195.2" y="318.7" width="12.2" height="24.65" shape-rendering="crispEdges"/><rect fill="#262626" x="207.4" y="318.7" width="707.6" height="24.65" shape-rendering="crispEdges"/><rect fill="#003054" x="915" y="318.7" width="24.4" height="24.65" shape-rendering="crispEdges"/><rect fill="#262626" x="939.4" y="318.7" width="12.2" height="24.65" shape-rendering="crispEdges"/><rect fill="#003054" x="951.6" y="318.7" width="24.4" height="24.65" shape-rendering="crispEdges"/><rect fill="#262626" x="0" y="343.1" width="12.2" height="24.65" shape-rendering="crispEdges"/><rect fill="#262626" x="12.2" y="343.1" width="24.4" height="24.65" shape-rendering="crispEdges"/><rect fill="#262626" x="36.6" y="343.1" width="12.2" height="24.65" shape-rendering="crispEdges"/><rect fill="#262626" x="48.8" y="343.1" width="146.4" height="24.65" shape-rendering="crispEdges"/><rect fill="#262626" x="195.2" y="343.1" width="12.2" height="24.65" shape-rendering="crispEdges"/><rect fill="#262626" x="207.4" y="343.1" width="61" height="24.65" shape-rendering="crispEdges"/><rect fill="#262626" x="268.4" y="343.1" width="109.8" height="24.65" shape-rendering="crispEdges"/><rect fill="#262626" x="378.2" y="343.1" width="536.8" height="24.65" shape-rendering="crispEdges"/><rect fill="#003054" x="915" y="343.1" width="24.4" height="24.65" shape-rendering="crispEdges"/><rect fill="#262626" x="939.4" y="343.1" width="12.2" height="24.65" shape-rendering="crispEdges"/><rect fill="#003054" x="951.6" y="343.1" width="24.4" height="24.65" shape-rendering="crispEdges"/><rect fill="#262626" x="0" y="367.5" width="12.2" height="24.65" shape-rendering="crispEdges"/><rect fill="#262626" x="12.2" y="367.5" width="24.4" height="24.65" shape-rendering="crispEdges"/><rect fill="#262626" x="36.6" y="367.5" width="48.8" height="24.65" shape-rendering="crispEdges"/><rect fill="#262626" x="85.4" y="367.5" width="12.2" height="24.65" shape-rendering="crispEdges"/><rect fill="#262626" x="97.6" y="367.5" width="97.6" height="24.65" shape-rendering="crispEdges"/><rect fill="#262626" x="195.2" y="367.5" width="12.2" height="24.65" shape-rendering="crispEdges"/><rect fill="#262626" x="207.4" y="367.5" width="707.6" height="24.65" shape-rendering="crispEdges"/><rect fill="#003054" x="915" y="367.5" width="24.4" height="24.65" shape-rendering="crispEdges"/><rect fill="#262626" x="939.4" y="367.5" width="12.2" height="24.65" shape-rendering="crispEdges"/><rect fill="#003054" x="951.6" y="367.5" width="24.4" height="24.65" shape-rendering="crispEdges"/><rect fill="#262626" x="0" y="391.9" width="12.2" height="24.65" shape-rendering="crispEdges"/><rect fill="#262626" x="12.2" y="391.9" width="24.4" height="24.65" shape-rendering="crispEdges"/><rect fill="#262626" x="36.6" y="391.9" width="12.2" height="24.65" shape-rendering="crispEdges"/><rect fill="#262626" x="48.8" y="391.9" width="134.2" height="24.65" shape-rendering="crispEdges"/><rect fill="#262626" x="183" y="391.9" width="24.4" height="24.65" shape-rendering="crispEdges"/><rect fill="#262626" x="207.4" y="391.9" width="61" height="24.65" shape-rendering="crispEdges"/><rect fill="#262626" x="268.4" y="391.9" width="109.8" height="24.65" shape-rendering="crispEdges"/><rect fill="#262626" x="378.2" y="391.9" width="536.8" height="24.65" shape-rendering="crispEdges"/><rect fill="#003054" x="915" y="391.9" width="24.4" height="24.65" shape-rendering="crispEdges"/><rect fill="#262626" x="939.4" y="391.9" width="12.2" height="24.65" shape-rendering="crispEdges"/><rect fill="#003054" x="951.6" y="391.9" width="24.4" height="24.65" shape-rendering="crispEdges"/><rect fill="#262626" x="0" y="416.3" width="12.2" height="24.65" shape-rendering="crispEdges"/><rect fill="#262626" x="12.2" y="416.3" width="24.4" height="24.65" shape-rendering="crispEdges"/><rect fill="#262626" x="36.6" y="416.3" width="48.8" height="24.65" shape-rendering="crispEdges"/><rect fill="#262626" x="85.4" y="416.3" width="12.2" height="24.65" shape-rendering="crispEdges"/><rect fill="#262626" x="97.6" y="416.3" width="97.6" height="24.65" shape-rendering="crispEdges"/><rect fill="#262626" x="195.2" y="416.3" width="12.2" height="24.65" shape-rendering="crispEdges"/><rect fill="#262626" x="207.4" y="416.3" width="707.6" height="24.65" shape-rendering="crispEdges"/><rect fill="#003054" x="915" y="416.3" width="24.4" height="24.65" shape-rendering="crispEdges"/><rect fill="#262626" x="939.4" y="416.3" width="12.2" height="24.65" shape-rendering="crispEdges"/><rect fill="#000000" x="951.6" y="416.3" width="24.4" height="24.65" shape-rendering="crispEdges"/><rect fill="#262626" x="0" y="440.7" width="12.2" height="24.65" shape-rendering="crispEdges"/><rect fill="#262626" x="12.2" y="440.7" width="24.4" height="24.65" shape-rendering="crispEdges"/><rect fill="#262626" x="36.6" y="440.7" width="12.2" height="24.65" shape-rendering="crispEdges"/><rect fill="#262626" x="48.8" y="440.7" width="134.2" height="24.65" shape-rendering="crispEdges"/><rect fill="#262626" x="183" y="440.7" width="24.4" height="24.65" shape-rendering="crispEdges"/><rect fill="#262626" x="207.4" y="440.7" width="61" height="24.65" shape-rendering="crispEdges"/><rect fill="#262626" x="268.4" y="440.7" width="122" height="24.65" shape-rendering="crispEdges"/><rect fill="#262626" x="390.4" y="440.7" width="524.6" height="24.65" shape-rendering="crispEdges"/><rect fill="#003054" x="915" y="440.7" width="24.4" height="24.65" shape-rendering="crispEdges"/><rect fill="#262626" x="939.4" y="440.7" width="12.2" height="24.65" shape-rendering="crispEdges"/><rect fill="#000000" x="951.6" y="440.7" width="24.4" height="24.65" shape-rendering="crispEdges"/><rect fill="#262626" x="0" y="465.1" width="12.2" height="24.65" shape-rendering="crispEdges"/><rect fill="#262626" x="12.2" y="465.1" width="24.4" height="24.65" shape-rendering="crispEdges"/><rect fill="#262626" x="36.6" y="465.1" width="170.8" height="24.65" shape-rendering="crispEdges"/><rect fill="#262626" x="207.4" y="465.1" width="707.6" height="24.65" shape-rendering="crispEdges"/><rect fill="#003054" x="915" y="465.1" width="24.4" height="24.65" shape-rendering="crispEdges"/><rect fill="#262626" x="939.4" y="465.1" width="12.2" height="24.65" shape-rendering="crispEdges"/><rect fill="#000000" x="951.6" y="465.1" width="24.4" height="24.65" shape-rendering="crispEdges"/><rect fill="#262626" x="0" y="489.5" width="12.2" height="24.65" shape-rendering="crispEdges"/><rect fill="#262626" x="12.2" y="489.5" width="24.4" height="24.65" shape-rendering="crispEdges"/><rect fill="#262626" x="36.6" y="489.5" width="12.2" height="24.65" shape-rendering="crispEdges"/><rect fill="#262626" x="48.8" y="489.5" width="134.2" height="24.65" shape-rendering="crispEdges"/><rect fill="#262626" x="183" y="489.5" width="24.4" height="24.65" shape-rendering="crispEdges"/><rect fill="#262626" x="207.4" y="489.5" width="61" height="24.65" shape-rendering="crispEdges"/><rect fill="#262626" x="268.4" y="489.5" width="122" height="24.65" shape-rendering="crispEdges"/><rect fill="#262626" x="390.4" y="489.5" width="524.6" height="24.65" shape-rendering="crispEdges"/><rect fill="#003054" x="915" y="489.5" width="24.4" height="24.65" shape-rendering="crispEdges"/><rect fill="#262626" x="939.4" y="489.5" width="12.2" height="24.65" shape-rendering="crispEdges"/><rect fill="#000000" x="951.6" y="489.5" width="24.4" height="24.65" shape-rendering="crispEdges"/><rect fill="#262626" x="0" y="513.9" width="12.2" height="24.65" shape-rendering="crispEdges"/><rect fill="#262626" x="12.2" y="513.9" width="24.4" height="24.65" shape-rendering="crispEdges"/><rect fill="#262626" x="36.6" y="513.9" width="158.6" height="24.65" shape-rendering="crispEdges"/><rect fill="#262626" x="195.2" y="513.9" width="12.2" height="24.65" shape-rendering="crispEdges"/><rect fill="#262626" x="207.4" y="513.9" width="707.6" height="24.65" shape-rendering="crispEdges"/><rect fill="#003054" x="915" y="513.9" width="24.4" height="24.65" shape-rendering="crispEdges"/><rect fill="#262626" x="939.4" y="513.9" width="12.2" height="24.65" shape-rendering="crispEdges"/><rect fill="#000000" x="951.6" y="513.9" width="24.4" height="24.65" shape-rendering="crispEdges"/><rect fill="#262626" x="0" y="538.3" width="12.2" height="24.65" shape-rendering="crispEdges"/><rect fill="#262626" x="12.2" y="538.3" width="24.4" height="24.65" shape-rendering="crispEdges"/><rect fill="#262626" x="36.6" y="538.3" width="24.4" height="24.65" shape-rendering="crispEdges"/><rect fill="#262626" x="61" y="538.3" width="122" height="24.65" shape-rendering="crispEdges"/><rect fill="#262626" x="183" y="538.3" width="24.4" height="24.65" shape-rendering="crispEdges"/><rect fill="#262626" x="207.4" y="538.3" width="61" height="24.65" shape-rendering="crispEdges"/><rect fill="#262626" x="268.4" y="538.3" width="134.2" height="24.65" shape-rendering="crispEdges"/><rect fill="#262626" x="402.6" y="538.3" width="512.4" height="24.65" shape-rendering="crispEdges"/><rect fill="#003054" x="915" y="538.3" width="24.4" height="24.65" shape-rendering="crispEdges"/><rect fill="#262626" x="939.4" y="538.3" width="12.2" height="24.65" shape-rendering="crispEdges"/><rect fill="#000000" x="951.6" y="538.3" width="24.4" height="24.65" shape-rendering="crispEdges"/><rect fill="#262626" x="0" y="562.7" width="36.6" height="24.65" shape-rendering="crispEdges"/><rect fill="#262626" x="36.6" y="562.7" width="24.4" height="24.65" shape-rendering="crispEdges"/><rect fill="#262626" x="61" y="562.7" width="61" height="24.65" shape-rendering="crispEdges"/><rect fill="#262626" x="122" y="562.7" width="85.4" height="24.65" shape-rendering="crispEdges"/><rect fill="#262626" x="207.4" y="562.7" width="597.8" height="24.65" shape-rendering="crispEdges"/><rect fill="#262626" x="805.2" y="562.7" width="12.2" height="24.65" shape-rendering="crispEdges"/><rect fill="#262626" x="817.4" y="562.7" width="24.4" height="24.65" shape-rendering="crispEdges"/><rect fill="#262626" x="841.8" y="562.7" width="73.2" height="24.65" shape-rendering="crispEdges"/><rect fill="#262626" x="915" y="562.7" width="24.4" height="24.65" shape-rendering="crispEdges"/><rect fill="#262626" x="939.4" y="562.7" width="12.2" height="24.65" shape-rendering="crispEdges"/><rect fill="#000000" x="951.6" y="562.7" width="24.4" height="24.65" shape-rendering="crispEdges"/>
    <g class="terminal-1253336147-matrix">
    <text class="terminal-1253336147-r2" x="12.2" y="20" textLength="12.2" clip-path="url(#terminal-1253336147-line-0)">⭘</text><text class="terminal-1253336147-r2" x="402.6" y="20" textLength="122" clip-path="url(#terminal-1253336147-line-0)">MulgogiApp</text><text class="terminal-1253336147-r3" x="841.8" y="20" textLength="97.6" clip-path="url(#terminal-1253336147-line-0)">01:17:28</text><text class="terminal-1253336147-r1" x="976" y="20" textLength="12.2" clip-path="url(#terminal-1253336147-line-0)">
</text><text class="terminal-1253336147-r4" x="0" y="44.4" textLength="12.2" clip-path="url(#terminal-1253336147-line-1)">│</text><text class="terminal-1253336147-r1" x="976" y="44.4" textLength="12.2" clip-path="url(#terminal-1253336147-line-1)">
</text><text class="terminal-1253336147-r4" x="0" y="68.8" textLength="12.2" clip-path="url(#terminal-1253336147-line-2)">│</text><text class="terminal-1253336147-r5" x="61" y="68.8" textLength="122" clip-path="url(#terminal-1253336147-line-2)">&#160;&#160;▄▄██▄▄&#160;&#160;</text><text class="terminal-1253336147-r6" x="207.4" y="68.8" textLength="24.4" clip-path="url(#terminal-1253336147-line-2)">붕어</text><text class="terminal-1253336147-r2" x="256.2" y="68.8" textLength="219.6" clip-path="url(#terminal-1253336147-line-2)">&#160;&#160;★&#160;&#160;최대&#160;1.25kg&#160;&#160;x1</text><text class="terminal-1253336147-r8" x="951.6" y="68.8" textLength="24.4" clip-path="url(#terminal-1253336147-line-2)">▆▆</text><text class="terminal-1253336147-r1" x="976" y="68.8" textLength="12.2" clip-path="url(#terminal-1253336147-line-2)">
</text><text class="terminal-1253336147-r4" x="0" y="93.2" textLength="12.2" clip-path="url(#terminal-1253336147-line-3)">│</text><text class="terminal-1253336147-r5" x="48.8" y="93.2" textLength="134.2" clip-path="url(#terminal-1253336147-line-3)">&#160;▄████●██▄&#160;</text><text class="terminal-1253336147-r1" x="976" y="93.2" textLength="12.2" clip-path="url(#terminal-1253336147-line-3)">
</text><text class="terminal-1253336147-r4" x="0" y="117.6" textLength="12.2" clip-path="url(#terminal-1253336147-line-4)">│</text><text class="terminal-1253336147-r10" x="61" y="117.6" textLength="122" clip-path="url(#terminal-1253336147-line-4)">&#160;&#160;▄▄██▄▄&#160;&#160;</text><text class="terminal-1253336147-r11" x="207.4" y="117.6" textLength="61" clip-path="url(#terminal-1253336147-line-4)">?&#160;?&#160;?</text><text class="terminal-1253336147-r2" x="268.4" y="117.6" textLength="97.6" clip-path="url(#terminal-1253336147-line-4)">&#160;&#160;★&#160;&#160;???</text><text class="terminal-1253336147-r1" x="976" y="117.6" textLength="12.2" clip-path="url(#terminal-1253336147-line-4)">
</text><text class="terminal-1253336147-r4" x="0" y="142" textLength="12.2" clip-path="url(#terminal-1253336147-line-5)">│</text><text class="terminal-1253336147-r10" x="48.8" y="142" textLength="36.6" clip-path="url(#terminal-1253336147-line-5)">&#160;▄█</text><text class="terminal-1253336147-r10" x="85.4" y="142" textLength="12.2" clip-path="url(#terminal-1253336147-line-5)">█</text><text class="terminal-1253336147-r10" x="97.6" y="142" textLength="36.6" clip-path="url(#terminal-1253336147-line-5)">███</text><text class="terminal-1253336147-r10" x="134.2" y="142" textLength="12.2" clip-path="url(#terminal-1253336147-line-5)">█</text><text class="terminal-1253336147-r10" x="146.4" y="142" textLength="36.6" clip-path="url(#terminal-1253336147-line-5)">█▄&#160;</text><text class="terminal-1253336147-r1" x="976" y="142" textLength="12.2" clip-path="url(#terminal-1253336147-line-5)">
</text><text class="terminal-1253336147-r4" x="0" y="166.4" textLength="12.2" clip-path="url(#terminal-1253336147-line-6)">│</text><text class="terminal-1253336147-r10" x="61" y="166.4" textLength="122" clip-path="url(#terminal-1253336147-line-6)">&#160;&#160;▄▄██▄▄&#160;&#160;</text><text class="terminal-1253336147-r11" x="207.4" y="166.4" textLength="61" clip-path="url(#terminal-1253336147-line-6)">?&#160;?&#160;?</text><text class="terminal-1253336147-r2" x="268.4" y="166.4" textLength="97.6" clip-path="url(#terminal-1253336147-line-6)">&#160;&#160;★&#160;&#160;???</text><text class="terminal-1253336147-r1" x="976" y="166.4" textLength="12.2" clip-path="url(#terminal-1253336147-line-6)">
</text><text class="terminal-1253336147-r4" x="0" y="190.8" textLength="12.2" clip-path="url(#terminal-1253336147-line-7)">│</text><text class="terminal-1253336147-r10" x="48.8" y="190.8" textLength="36.6" clip-path="url(#terminal-1253336147-line-7)">&#160;▄█</text><text class="terminal-1253336147-r10" x="85.4" y="190.8" textLength="12.2" clip-path="url(#terminal-1253336147-line-7)">●</text><text class="terminal-1253336147-r10" x="97.6" y="190.8" textLength="85.4" clip-path="url(#terminal-1253336147-line-7)">█████▄&#160;</text><text class="terminal-1253336147-r1" x="976" y="190.8" textLength="12.2" clip-path="url(#terminal-1253336147-line-7)">
</text><text class="terminal-1253336147-r4" x="0" y="215.2" textLength="12.2" clip-path="url(#terminal-1253336147-line-8)">│</text><text class="terminal-1253336147-r10" x="48.8" y="215.2" textLength="134.2" clip-path="url(#terminal-1253336147-line-8)">&#160;&#160;▄▄▄██▄▄&#160;&#160;</text><text class="terminal-1253336147-r11" x="207.4" y="215.2" textLength="61" clip-path="url(#terminal-1253336147-line-8)">?&#160;?&#160;?</text><text class="terminal-1253336147-r2" x="268.4" y="215.2" textLength="97.6" clip-path="url(#terminal-1253336147-line-8)">&#160;&#160;★&#160;&#160;???</text><text class="terminal-1253336147-r1" x="976" y="215.2" textLength="12.2" clip-path="url(#terminal-1253336147-line-8)">
</text><text class="terminal-1253336147-r4" x="0" y="239.6" textLength="12.2" clip-path="url(#terminal-1253336147-line-9)">│</text><text class="terminal-1253336147-r10" x="48.8" y="239.6" textLength="134.2" clip-path="url(#terminal-1253336147-line-9)">&#160;▄███████▄&#160;</text><text class="terminal-1253336147-r1" x="976" y="239.6" textLength="12.2" clip-path="url(#terminal-1253336147-line-9)">
</text><text class="terminal-1253336147-r4" x="0" y="264" textLength="12.2" clip-path="url(#terminal-1253336147-line-10)">│</text><text class="terminal-1253336147-r12" x="61" y="264" textLength="122" clip-path="url(#terminal-1253336147-line-10)">&#160;&#160;▄▄██▄▄&#160;&#160;</text><text class="terminal-1253336147-r6" x="207.4" y="264" textLength="24.4" clip-path="url(#terminal-1253336147-line-10)">송어</text><text class="terminal-1253336147-r2" x="256.2" y="264" textLength="219.6" clip-path="url(#terminal-1253336147-line-10)">&#160;&#160;★★&#160;&#160;최대&#160;2.1kg&#160;&#160;x1</text><text class="terminal-1253336147-r1" x="976" y="264" textLength="12.2" clip-path="url(#terminal-1253336147-line-10)">
</text><text class="terminal-1253336147-r4" x="0" y="288.4" textLength="12.2" clip-path="url(#terminal-1253336147-line-11)">│</text><text class="terminal-1253336147-r12" x="48.8" y="288.4" textLength="36.6" clip-path="url(#terminal-1253336147-line-11)">&#160;▄█</text><text class="terminal-1253336147-r13" x="85.4" y="288.4" textLength="12.2" clip-path="url(#terminal-1253336147-line-11)">■</text><text class="terminal-1253336147-r12" x="97.6" y="288.4" textLength="97.6" clip-path="url(#terminal-1253336147-line-11)">███●██▄&#160;</text><text class="terminal-1253336147-r1" x="976" y="288.4" textLength="12.2" clip-path="url(#terminal-1253336147-line-11)">
</text><text class="terminal-1253336147-r4" x="0" y="312.8" textLength="12.2" clip-path="url(#terminal-1253336147-line-12)">│</text><text class="terminal-1253336147-r10" x="61" y="312.8" textLength="122" clip-path="url(#terminal-1253336147-line-12)">&#160;&#160;▄▄██▄▄&#160;&#160;</text><text class="terminal-1253336147-r11" x="207.4" y="312.8" textLength="61" clip-path="url(#terminal-1253336147-line-12)">?&#160;?&#160;?</text><text class="terminal-1253336147-r2" x="268.4" y="312.8" textLength="109.8" clip-path="url(#terminal-1253336147-line-12)">&#160;&#160;★★&#160;&#160;???</text><text class="terminal-1253336147-r1" x="976" y="312.8" textLength="12.2" clip-path="url(#terminal-1253336147-line-12)">
</text><text class="terminal-1253336147-r4" x="0" y="337.2" textLength="12.2" clip-path="url(#terminal-1253336147-line-13)">│</text><text class="terminal-1253336147-r10" x="48.8" y="337.2" textLength="36.6" clip-path="url(#terminal-1253336147-line-13)">&#160;▄█</text><text class="terminal-1253336147-r10" x="85.4" y="337.2" textLength="12.2" clip-path="url(#terminal-1253336147-line-13)">█</text><text class="terminal-1253336147-r10" x="97.6" y="337.2" textLength="36.6" clip-path="url(#terminal-1253336147-line-13)">███</text><text class="terminal-1253336147-r10" x="134.2" y="337.2" textLength="12.2" clip-path="url(#terminal-1253336147-line-13)">█</text><text class="terminal-1253336147-r10" x="146.4" y="337.2" textLength="48.8" clip-path="url(#terminal-1253336147-line-13)">██▄&#160;</text><text class="terminal-1253336147-r1" x="976" y="337.2" textLength="12.2" clip-path="url(#terminal-1253336147-line-13)">
</text><text class="terminal-1253336147-r4" x="0" y="361.6" textLength="12.2" clip-path="url(#terminal-1253336147-line-14)">│</text><text class="terminal-1253336147-r10" x="48.8" y="361.6" textLength="146.4" clip-path="url(#terminal-1253336147-line-14)">&#160;&#160;&#160;▄████▄&#160;&#160;&#160;</text><text class="terminal-1253336147-r11" x="207.4" y="361.6" textLength="61" clip-path="url(#terminal-1253336147-line-14)">?&#160;?&#160;?</text><text class="terminal-1253336147-r2" x="268.4" y="361.6" textLength="109.8" clip-path="url(#terminal-1253336147-line-14)">&#160;&#160;★★&#160;&#160;???</text><text class="terminal-1253336147-r1" x="976" y="361.6" textLength="12.2" clip-path="url(#terminal-1253336147-line-14)">
</text><text class="terminal-1253336147-r4" x="0" y="386" textLength="12.2" clip-path="url(#terminal-1253336147-line-15)">│</text><text class="terminal-1253336147-r10" x="36.6" y="386" textLength="48.8" clip-path="url(#terminal-1253336147-line-15)">&#160;&#160;▄█</text><text class="terminal-1253336147-r10" x="85.4" y="386" textLength="12.2" clip-path="url(#terminal-1253336147-line-15)">●</text><text class="terminal-1253336147-r10" x="97.6" y="386" textLength="97.6" clip-path="url(#terminal-1253336147-line-15)">█████▄&#160;&#160;</text><text class="terminal-1253336147-r1" x="976" y="386" textLength="12.2" clip-path="url(#terminal-1253336147-line-15)">
</text><text class="terminal-1253336147-r4" x="0" y="410.4" textLength="12.2" clip-path="url(#terminal-1253336147-line-16)">│</text><text class="terminal-1253336147-r10" x="48.8" y="410.4" textLength="134.2" clip-path="url(#terminal-1253336147-line-16)">&#160;&#160;&#160;▄███▄&#160;&#160;&#160;</text><text class="terminal-1253336147-r11" x="207.4" y="410.4" textLength="61" clip-path="url(#terminal-1253336147-line-16)">?&#160;?&#160;?</text><text class="terminal-1253336147-r2" x="268.4" y="410.4" textLength="109.8" clip-path="url(#terminal-1253336147-line-16)">&#160;&#160;★★&#160;&#160;???</text><text class="terminal-1253336147-r14" x="951.6" y="410.4" textLength="24.4" clip-path="url(#terminal-1253336147-line-16)">▅▅</text><text class="terminal-1253336147-r1" x="976" y="410.4" textLength="12.2" clip-path="url(#terminal-1253336147-line-16)">
</text><text class="terminal-1253336147-r4" x="0" y="434.8" textLength="12.2" clip-path="url(#terminal-1253336147-line-17)">│</text><text class="terminal-1253336147-r10" x="36.6" y="434.8" textLength="48.8" clip-path="url(#terminal-1253336147-line-17)">&#160;&#160;▄█</text><text class="terminal-1253336147-r10" x="85.4" y="434.8" textLength="12.2" clip-path="url(#terminal-1253336147-line-17)">█</text><text class="terminal-1253336147-r10" x="97.6" y="434.8" textLength="97.6" clip-path="url(#terminal-1253336147-line-17)">██●██▄&#160;&#160;</text><text class="terminal-1253336147-r1" x="976" y="434.8" textLength="12.2" clip-path="url(#terminal-1253336147-line-17)">
</text><text class="terminal-1253336147-r4" x="0" y="459.2" textLength="12.2" clip-path="url(#terminal-1253336147-line-18)">│</text><text class="terminal-1253336147-r11" x="207.4" y="459.2" textLength="61" clip-path="url(#terminal-1253336147-line-18)">?&#160;?&#160;?</text><text class="terminal-1253336147-r2" x="268.4" y="459.2" textLength="122" clip-path="url(#terminal-1253336147-line-18)">&#160;&#160;★★★&#160;&#160;???</text><text class="terminal-1253336147-r1" x="976" y="459.2" textLength="12.2" clip-path="url(#terminal-1253336147-line-18)">
</text><text class="terminal-1253336147-r4" x="0" y="483.6" textLength="12.2" clip-path="url(#terminal-1253336147-line-19)">│</text><text class="terminal-1253336147-r10" x="36.6" y="483.6" textLength="170.8" clip-path="url(#terminal-1253336147-line-19)">&#160;▄██████████▄&#160;</text><text class="terminal-1253336147-r1" x="976" y="483.6" textLength="12.2" clip-path="url(#terminal-1253336147-line-19)">
</text><text class="terminal-1253336147-r4" x="0" y="508" textLength="12.2" clip-path="url(#terminal-1253336147-line-20)">│</text><text class="terminal-1253336147-r10" x="48.8" y="508" textLength="134.2" clip-path="url(#terminal-1253336147-line-20)">&#160;&#160;&#160;&#160;&#160;&#160;&#160;&#160;▄▄&#160;</text><text class="terminal-1253336147-r11" x="207.4" y="508" textLength="61" clip-path="url(#terminal-1253336147-line-20)">?&#160;?&#160;?</text><text class="terminal-1253336147-r2" x="268.4" y="508" textLength="122" clip-path="url(#terminal-1253336147-line-20)">&#160;&#160;★★★&#160;&#160;???</text><text class="terminal-1253336147-r1" x="976" y="508" textLength="12.2" clip-path="url(#terminal-1253336147-line-20)">
</text><text class="terminal-1253336147-r4" x="0" y="532.4" textLength="12.2" clip-path="url(#terminal-1253336147-line-21)">│</text><text class="terminal-1253336147-r10" x="36.6" y="532.4" textLength="158.6" clip-path="url(#terminal-1253336147-line-21)">&#160;▄██████████▄</text><text class="terminal-1253336147-r1" x="976" y="532.4" textLength="12.2" clip-path="url(#terminal-1253336147-line-21)">
</text><text class="terminal-1253336147-r4" x="0" y="556.8" textLength="12.2" clip-path="url(#terminal-1253336147-line-22)">│</text><text class="terminal-1253336147-r10" x="61" y="556.8" textLength="122" clip-path="url(#terminal-1253336147-line-22)">&#160;&#160;▄▄██▄▄&#160;&#160;</text><text class="terminal-1253336147-r11" x="207.4" y="556.8" textLength="61" clip-path="url(#terminal-1253336147-line-22)">?&#160;?&#160;?</text><text class="terminal-1253336147-r2" x="268.4" y="556.8" textLength="134.2" clip-path="url(#terminal-1253336147-line-22)">&#160;&#160;★★★★&#160;&#160;???</text><text class="terminal-1253336147-r1" x="976" y="556.8" textLength="12.2" clip-path="url(#terminal-1253336147-line-22)">
</text><text class="terminal-1253336147-r6" x="0" y="581.2" textLength="36.6" clip-path="url(#terminal-1253336147-line-23)">&#160;es</text><text class="terminal-1253336147-r6" x="36.6" y="581.2" textLength="24.4" clip-path="url(#terminal-1253336147-line-23)">c&#160;</text><text class="terminal-1253336147-r2" x="61" y="581.2" textLength="36.6" clip-path="url(#terminal-1253336147-line-23)">뒤로&#160;</text><text class="terminal-1253336147-r15" x="805.2" y="581.2" textLength="12.2" clip-path="url(#terminal-1253336147-line-23)">▏</text><text class="terminal-1253336147-r6" x="817.4" y="581.2" textLength="24.4" clip-path="url(#terminal-1253336147-line-23)">^p</text><text class="terminal-1253336147-r2" x="841.8" y="581.2" textLength="73.2" clip-path="url(#terminal-1253336147-line-23)">&#160;palet</text><text class="terminal-1253336147-r2" x="915" y="581.2" textLength="24.4" clip-path="url(#terminal-1253336147-line-23)">te</text>
    </g>
    </g>
</svg>
