<svg class="rich-terminal" viewBox="0 0 994 635.5999999999999" xmlns="http://www.w3.org/2000/svg">
    <!-- Generated with Rich https://www.textualize.io -->
    <style>

    @font-face {
        font-family: "Fira Code";
        src: local("FiraCode-Regular"),
                url("https://cdnjs.cloudflare.com/ajax/libs/firacode/6.2.0/woff2/FiraCode-Regular.woff2") format("woff2"),
                url("https://cdnjs.cloudflare.com/ajax/libs/firacode/6.2.0/woff/FiraCode-Regular.woff") format("woff");
        font-style: normal;
        font-weight: 400;
    }
    @font-face {
        font-family: "Fira Code";
        src: local("FiraCode-Bold"),
                url("https://cdnjs.cloudflare.com/ajax/libs/firacode/6.2.0/woff2/FiraCode-Bold.woff2") format("woff2"),
                url("https://cdnjs.cloudflare.com/ajax/libs/firacode/6.2.0/woff/FiraCode-Bold.woff") format("woff");
        font-style: bold;
        font-weight: 700;
    }

    .terminal-1150307565-matrix {
        font-family: Fira Code, monospace;
        font-size: 20px;
        line-height: 24.4px;
        font-variant-east-asian: full-width;
    }

    .terminal-1150307565-title {
        font-size: 18px;
        font-weight: bold;
        font-family: arial;
    }

    .terminal-1150307565-r1 { fill: #33d9b2 }
.terminal-1150307565-r2 { fill: #1e1e1e }
.terminal-1150307565-r3 { fill: #c5c8c6 }
.terminal-1150307565-r4 { fill: #f0f0f0;font-weight: bold }
.terminal-1150307565-r5 { fill: #f0f0f0 }
.terminal-1150307565-r6 { fill: #98e024 }
.terminal-1150307565-r7 { fill: #ababab }
.terminal-1150307565-r8 { fill: #000000 }
.terminal-1150307565-r9 { fill: #4b4b4b }
    </style>

    <defs>
    <clipPath id="terminal-1150307565-clip-terminal">
      <rect x="0" y="0" width="975.0" height="584.5999999999999" />
    </clipPath>
    <clipPath id="terminal-1150307565-line-0">
    <rect x="0" y="1.5" width="976" height="24.65"/>
            </clipPath>
<clipPath id="terminal-1150307565-line-1">
    <rect x="0" y="25.9" width="976" height="24.65"/>
            </clipPath>
<clipPath id="terminal-1150307565-line-2">
    <rect x="0" y="50.3" width="976" height="24.65"/>
            </clipPath>
<clipPath id="terminal-1150307565-line-3">
    <rect x="0" y="74.7" width="976" height="24.65"/>
            </clipPath>
<clipPath id="terminal-1150307565-line-4">
    <rect x="0" y="99.1" width="976" height="24.65"/>
            </clipPath>
<clipPath id="terminal-1150307565-line-5">
    <rect x="0" y="123.5" width="976" height="24.65"/>
            </clipPath>
<clipPath id="terminal-1150307565-line-6">
    <rect x="0" y="147.9" width="976" height="24.65"/>
            </clipPath>
<clipPath id="terminal-1150307565-line-7">
    <rect x="0" y="172.3" width="976" height="24.65"/>
            </clipPath>
<clipPath id="terminal-1150307565-line-8">
    <rect x="0" y="196.7" width="976" height="24.65"/>
            </clipPath>
<clipPath id="terminal-1150307565-line-9">
    <rect x="0" y="221.1" width="976" height="24.65"/>
            </clipPath>
<clipPath id="terminal-1150307565-line-10">
    <rect x="0" y="245.5" width="976" height="24.65"/>
            </clipPath>
<clipPath id="terminal-1150307565-line-11">
    <rect x="0" y="269.9" width="976" height="24.65"/>
            </clipPath>
<clipPath id="terminal-1150307565-line-12">
    <rect x="0" y="294.3" width="976" height="24.65"/>
            </clipPath>
<clipPath id="terminal-1150307565-line-13">
    <rect x="0" y="318.7" width="976" height="24.65"/>
            </clipPath>
<clipPath id="terminal-1150307565-line-14">
    <rect x="0" y="343.1" width="976" height="24.65"/>
            </clipPath>
<clipPath id="terminal-1150307565-line-15">
    <rect x="0" y="367.5" width="976" height="24.65"/>
            </clipPath>
<clipPath id="terminal-1150307565-line-16">
    <rect x="0" y="391.9" width="976" height="24.65"/>
            </clipPath>
<clipPath id="terminal-1150307565-line-17">
    <rect x="0" y="416.3" width="976" height="24.65"/>
            </clipPath>
<clipPath id="terminal-1150307565-line-18">
    <rect x="0" y="440.7" width="976" height="24.65"/>
            </clipPath>
<clipPath id="terminal-1150307565-line-19">
    <rect x="0" y="465.1" width="976" height="24.65"/>
            </clipPath>
<clipPath id="terminal-1150307565-line-20">
    <rect x="0" y="489.5" width="976" height="24.65"/>
            </clipPath>
<clipPath id="terminal-1150307565-line-21">
    <rect x="0" y="513.9" width="976" height="24.65"/>
            </clipPath>
<clipPath id="terminal-1150307565-line-22">
    <rect x="0" y="538.3" width="976" height="24.65"/>
            </clipPath>
    </defs>

    <rect fill="#292929" stroke="rgba(255,255,255,0.35)" stroke-width="1" x="1" y="1" width="992" height="633.6" rx="8"/><text class="terminal-1150307565-title" fill="#c5c8c6" text-anchor="middle" x="496" y="27">MulgogiApp</text>
            <g transform="translate(26,22)">
            <circle cx="0" cy="0" r="7" fill="#ff5f57"/>
            <circle cx="22" cy="0" r="7" fill="#febc2e"/>
            <circle cx="44" cy="0" r="7" fill="#28c840"/>
            </g>
        
    <g transform="translate(9, 41)" clip-path="url(#terminal-1150307565-clip-terminal)">
    <rect fill="#262626" x="0" y="1.5" width="12.2" height="24.65" shape-rendering="crispEdges"/><rect fill="#262626" x="12.2" y="1.5" width="939.4" height="24.65" shape-rendering="crispEdges"/><rect fill="#003054" x="951.6" y="1.5" width="24.4" height="24.65" shape-rendering="crispEdges"/><rect fill="#262626" x="0" y="25.9" width="12.2" height="24.65" shape-rendering="crispEdges"/><rect fill="#262626" x="12.2" y="25.9" width="939.4" height="24.65" shape-rendering="crispEdges"/><rect fill="#003054" x="951.6" y="25.9" width="24.4" height="24.65" shape-rendering="crispEdges"/><rect fill="#262626" x="0" y="50.3" width="12.2" height="24.65" shape-rendering="crispEdges"/><rect fill="#262626" x="12.2" y="50.3" width="24.4" height="24.65" shape-rendering="crispEdges"/><rect fill="#262626" x="36.6" y="50.3" width="427" height="24.65" shape-rendering="crispEdges"/><rect fill="#262626" x="463.6" y="50.3" width="48.8" height="24.65" shape-rendering="crispEdges"/><rect fill="#262626" x="512.4" y="50.3" width="427" height="24.65" shape-rendering="crispEdges"/><rect fill="#262626" x="939.4" y="50.3" width="12.2" height="24.65" shape-rendering="crispEdges"/><rect fill="#003054" x="951.6" y="50.3" width="24.4" height="24.65" shape-rendering="crispEdges"/><rect fill="#262626" x="0" y="74.7" width="12.2" height="24.65" shape-rendering="crispEdges"/><rect fill="#262626" x="12.2" y="74.7" width="24.4" height="24.65" shape-rendering="crispEdges"/><rect fill="#262626" x="36.6" y="74.7" width="329.4" height="24.65" shape-rendering="crispEdges"/><rect fill="#262626" x="366" y="74.7" width="231.8" height="24.65" shape-rendering="crispEdges"/><rect fill="#262626" x="597.8" y="74.7" width="341.6" height="24.65" shape-rendering="crispEdges"/><rect fill="#262626" x="939.4" y="74.7" width="12.2" height="24.65" shape-rendering="crispEdges"/><rect fill="#003054" x="951.6" y="74.7" width="24.4" height="24.65" shape-rendering="crispEdges"/><rect fill="#262626" x="0" y="99.1" width="12.2" height="24.65" shape-rendering="crispEdges"/><rect fill="#262626" x="12.2" y="99.1" width="24.4" height="24.65" shape-rendering="crispEdges"/><rect fill="#262626" x="36.6" y="99.1" width="451.4" height="24.65" shape-rendering="crispEdges"/><rect fill="#262626" x="488" y="99.1" width="0" height="24.65" shape-rendering="crispEdges"/><rect fill="#262626" x="488" y="99.1" width="451.4" height="24.65" shape-rendering="crispEdges"/><rect fill="#262626" x="939.4" y="99.1" width="12.2" height="24.65" shape-rendering="crispEdges"/><rect fill="#003054" x="951.6" y="99.1" width="24.4" height="24.65" shape-rendering="crispEdges"/><rect fill="#262626" x="0" y="123.5" width="12.2" height="24.65" shape-rendering="crispEdges"/><rect fill="#262626" x="12.2" y="123.5" width="24.4" height="24.65" shape-rendering="crispEdges"/><rect fill="#262626" x="36.6" y="123.5" width="292.8" height="24.65" shape-rendering="crispEdges"/><rect fill="#262626" x="329.4" y="123.5" width="12.2" height="24.65" shape-rendering="crispEdges"/><rect fill="#262626" x="341.6" y="123.5" width="305" height="24.65" shape-rendering="crispEdges"/><rect fill="#262626" x="646.6" y="123.5" width="292.8" height="24.65" shape-rendering="crispEdges"/><rect fill="#262626" x="939.4" y="123.5" width="12.2" height="24.65" shape-rendering="crispEdges"/><rect fill="#003054" x="951.6" y="123.5" width="24.4" height="24.65" shape-rendering="crispEdges"/><rect fill="#262626" x="0" y="147.9" width="12.2" height="24.65" shape-rendering="crispEdges"/><rect fill="#262626" x="12.2" y="147.9" width="24.4" height="24.65" shape-rendering="crispEdges"/><rect fill="#262626" x="36.6" y="147.9" width="280.6" height="24.65" shape-rendering="crispEdges"/><rect fill="#262626" x="317.2" y="147.9" width="12.2" height="24.65" shape-rendering="crispEdges"/><rect fill="#262626" x="329.4" y="147.9" width="329.4" height="24.65" shape-rendering="crispEdges"/><rect fill="#262626" x="658.8" y="147.9" width="280.6" height="24.65" shape-rendering="crispEdges"/><rect fill="#262626" x="939.4" y="147.9" width="12.2" height="24.65" shape-rendering="crispEdges"/><rect fill="#003054" x="951.6" y="147.9" width="24.4" height="24.65" shape-rendering="crispEdges"/><rect fill="#262626" x="0" y="172.3" width="12.2" height="24.65" shape-rendering="crispEdges"/><rect fill="#262626" x="12.2" y="172.3" width="24.4" height="24.65" shape-rendering="crispEdges"/><rect fill="#262626" x="36.6" y="172.3" width="366" height="24.65" shape-rendering="crispEdges"/><rect fill="#262626" x="402.6" y="172.3" width="61" height="24.65" shape-rendering="crispEdges"/><rect fill="#262626" x="463.6" y="172.3" width="97.6" height="24.65" shape-rendering="crispEdges"/><rect fill="#262626" x="561.2" y="172.3" width="378.2" height="24.65" shape-rendering="crispEdges"/><rect fill="#262626" x="939.4" y="172.3" width="12.2" height="24.65" shape-rendering="crispEdges"/><rect fill="#003054" x="951.6" y="172.3" width="24.4" height="24.65" shape-rendering="crispEdges"/><rect fill="#262626" x="0" y="196.7" width="12.2" height="24.65" shape-rendering="crispEdges"/><rect fill="#262626" x="12.2" y="196.7" width="24.4" height="24.65" shape-rendering="crispEdges"/><rect fill="#262626" x="36.6" y="196.7" width="268.4" height="24.65" shape-rendering="crispEdges"/><rect fill="#262626" x="305" y="196.7" width="12.2" height="24.65" shape-rendering="crispEdges"/><rect fill="#262626" x="317.2" y="196.7" width="353.8" height="24.65" shape-rendering="crispEdges"/><rect fill="#262626" x="671" y="196.7" width="268.4" height="24.65" shape-rendering="crispEdges"/><rect fill="#262626" x="939.4" y="196.7" width="12.2" height="24.65" shape-rendering="crispEdges"/><rect fill="#003054" x="951.6" y="196.7" width="24.4" height="24.65" shape-rendering="crispEdges"/><rect fill="#262626" x="0" y="221.1" width="12.2" height="24.65" shape-rendering="crispEdges"/><rect fill="#262626" x="12.2" y="221.1" width="24.4" height="24.65" shape-rendering="crispEdges"/><rect fill="#262626" x="36.6" y="221.1" width="292.8" height="24.65" shape-rendering="crispEdges"/><rect fill="#262626" x="329.4" y="221.1" width="12.2" height="24.65" shape-rendering="crispEdges"/><rect fill="#262626" x="341.6" y="221.1" width="305" height="24.65" shape-rendering="crispEdges"/><rect fill="#262626" x="646.6" y="221.1" width="292.8" height="24.65" shape-rendering="crispEdges"/><rect fill="#262626" x="939.4" y="221.1" width="12.2" height="24.65" shape-rendering="crispEdges"/><rect fill="#003054" x="951.6" y="221.1" width="24.4" height="24.65" shape-rendering="crispEdges"/><rect fill="#262626" x="0" y="245.5" width="12.2" height="24.65" shape-rendering="crispEdges"/><rect fill="#262626" x="12.2" y="245.5" width="24.4" height="24.65" shape-rendering="crispEdges"/><rect fill="#262626" x="36.6" y="245.5" width="366" height="24.65" shape-rendering="crispEdges"/><rect fill="#262626" x="402.6" y="245.5" width="61" height="24.65" shape-rendering="crispEdges"/><rect fill="#262626" x="463.6" y="245.5" width="109.8" height="24.65" shape-rendering="crispEdges"/><rect fill="#262626" x="573.4" y="245.5" width="366" height="24.65" shape-rendering="crispEdges"/><rect fill="#262626" x="939.4" y="245.5" width="12.2" height="24.65" shape-rendering="crispEdges"/><rect fill="#003054" x="951.6" y="245.5" width="24.4" height="24.65" shape-rendering="crispEdges"/><rect fill="#262626" x="0" y="269.9" width="12.2" height="24.65" shape-rendering="crispEdges"/><rect fill="#262626" x="12.2" y="269.9" width="24.4" height="24.65" shape-rendering="crispEdges"/><rect fill="#262626" x="36.6" y="269.9" width="366" height="24.65" shape-rendering="crispEdges"/><rect fill="#262626" x="402.6" y="269.9" width="61" height="24.65" shape-rendering="crispEdges"/><rect fill="#262626" x="463.6" y="269.9" width="109.8" height="24.65" shape-rendering="crispEdges"/><rect fill="#262626" x="573.4" y="269.9" width="366" height="24.65" shape-rendering="crispEdges"/><rect fill="#262626" x="939.4" y="269.9" width="12.2" height="24.65" shape-rendering="crispEdges"/><rect fill="#003054" x="951.6" y="269.9" width="24.4" height="24.65" shape-rendering="crispEdges"/><rect fill="#262626" x="0" y="294.3" width="12.2" height="24.65" shape-rendering="crispEdges"/><rect fill="#262626" x="12.2" y="294.3" width="24.4" height="24.65" shape-rendering="crispEdges"/><rect fill="#262626" x="36.6" y="294.3" width="366" height="24.65" shape-rendering="crispEdges"/><rect fill="#262626" x="402.6" y="294.3" width="61" height="24.65" shape-rendering="crispEdges"/><rect fill="#262626" x="463.6" y="294.3" width="109.8" height="24.65" shape-rendering="crispEdges"/><rect fill="#262626" x="573.4" y="294.3" width="366" height="24.65" shape-rendering="crispEdges"/><rect fill="#262626" x="939.4" y="294.3" width="12.2" height="24.65" shape-rendering="crispEdges"/><rect fill="#003054" x="951.6" y="294.3" width="24.4" height="24.65" shape-rendering="crispEdges"/><rect fill="#262626" x="0" y="318.7" width="12.2" height="24.65" shape-rendering="crispEdges"/><rect fill="#262626" x="12.2" y="318.7" width="24.4" height="24.65" shape-rendering="crispEdges"/><rect fill="#262626" x="36.6" y="318.7" width="353.8" height="24.65" shape-rendering="crispEdges"/><rect fill="#262626" x="390.4" y="318.7" width="61" height="24.65" shape-rendering="crispEdges"/><rect fill="#262626" x="451.4" y="318.7" width="122" height="24.65" shape-rendering="crispEdges"/><rect fill="#262626" x="573.4" y="318.7" width="366" height="24.65" shape-rendering="crispEdges"/><rect fill="#262626" x="939.4" y="318.7" width="12.2" height="24.65" shape-rendering="crispEdges"/><rect fill="#003054" x="951.6" y="318.7" width="24.4" height="24.65" shape-rendering="crispEdges"/><rect fill="#262626" x="0" y="343.1" width="12.2" height="24.65" shape-rendering="crispEdges"/><rect fill="#262626" x="12.2" y="343.1" width="24.4" height="24.65" shape-rendering="crispEdges"/><rect fill="#262626" x="36.6" y="343.1" width="353.8" height="24.65" shape-rendering="crispEdges"/><rect fill="#262626" x="390.4" y="343.1" width="61" height="24.65" shape-rendering="crispEdges"/><rect fill="#262626" x="451.4" y="343.1" width="122" height="24.65" shape-rendering="crispEdges"/><rect fill="#262626" x="573.4" y="343.1" width="366" height="24.65" shape-rendering="crispEdges"/><rect fill="#262626" x="939.4" y="343.1" width="12.2" height="24.65" shape-rendering="crispEdges"/><rect fill="#003054" x="951.6" y="343.1" width="24.4" height="24.65" shape-rendering="crispEdges"/><rect fill="#262626" x="0" y="367.5" width="12.2" height="24.65" shape-rendering="crispEdges"/><rect fill="#262626" x="12.2" y="367.5" width="24.4" height="24.65" shape-rendering="crispEdges"/><rect fill="#262626" x="36.6" y="367.5" width="353.8" height="24.65" shape-rendering="crispEdges"/><rect fill="#262626" x="390.4" y="367.5" width="61" height="24.65" shape-rendering="crispEdges"/><rect fill="#262626" x="451.4" y="367.5" width="134.2" height="24.65" shape-rendering="crispEdges"/><rect fill="#262626" x="585.6" y="367.5" width="353.8" height="24.65" shape-rendering="crispEdges"/><rect fill="#262626" x="939.4" y="367.5" width="12.2" height="24.65" shape-rendering="crispEdges"/><rect fill="#000000" x="951.6" y="367.5" width="24.4" height="24.65" shape-rendering="crispEdges"/><rect fill="#262626" x="0" y="391.9" width="12.2" height="24.65" shape-rendering="crispEdges"/><rect fill="#262626" x="12.2" y="391.9" width="24.4" height="24.65" shape-rendering="crispEdges"/><rect fill="#262626" x="36.6" y="391.9" width="353.8" height="24.65" shape-rendering="crispEdges"/><rect fill="#262626" x="390.4" y="391.9" width="61" height="24.65" shape-rendering="crispEdges"/><rect fill="#262626" x="451.4" y="391.9" width="134.2" height="24.65" shape-rendering="crispEdges"/><rect fill="#262626" x="585.6" y="391.9" width="353.8" height="24.65" shape-rendering="crispEdges"/><rect fill="#262626" x="939.4" y="391.9" width="12.2" height="24.65" shape-rendering="crispEdges"/><rect fill="#000000" x="951.6" y="391.9" width="24.4" height="24.65" shape-rendering="crispEdges"/><rect fill="#262626" x="0" y="416.3" width="12.2" height="24.65" shape-rendering="crispEdges"/><rect fill="#262626" x="12.2" y="416.3" width="24.4" height="24.65" shape-rendering="crispEdges"/><rect fill="#262626" x="36.6" y="416.3" width="353.8" height="24.65" shape-rendering="crispEdges"/><rect fill="#262626" x="390.4" y="416.3" width="61" height="24.65" shape-rendering="crispEdges"/><rect fill="#262626" x="451.4" y="416.3" width="134.2" height="24.65" shape-rendering="crispEdges"/><rect fill="#262626" x="585.6" y="416.3" width="353.8" height="24.65" shape-rendering="crispEdges"/><rect fill="#262626" x="939.4" y="416.3" width="12.2" height="24.65" shape-rendering="crispEdges"/><rect fill="#000000" x="951.6" y="416.3" width="24.4" height="24.65" shape-rendering="crispEdges"/><rect fill="#262626" x="0" y="440.7" width="12.2" height="24.65" shape-rendering="crispEdges"/><rect fill="#262626" x="12.2" y="440.7" width="24.4" height="24.65" shape-rendering="crispEdges"/><rect fill="#262626" x="36.6" y="440.7" width="366" height="24.65" shape-rendering="crispEdges"/><rect fill="#262626" x="402.6" y="440.7" width="61" height="24.65" shape-rendering="crispEdges"/><rect fill="#262626" x="463.6" y="440.7" width="109.8" height="24.65" shape-rendering="crispEdges"/><rect fill="#262626" x="573.4" y="440.7" width="366" height="24.65" shape-rendering="crispEdges"/><rect fill="#262626" x="939.4" y="440.7" width="12.2" height="24.65" shape-rendering="crispEdges"/><rect fill="#000000" x="951.6" y="440.7" width="24.4" height="24.65" shape-rendering="crispEdges"/><rect fill="#262626" x="0" y="465.1" width="12.2" height="24.65" shape-rendering="crispEdges"/><rect fill="#262626" x="12.2" y="465.1" width="24.4" height="24.65" shape-rendering="crispEdges"/><rect fill="#262626" x="36.6" y="465.1" width="353.8" height="24.65" shape-rendering="crispEdges"/><rect fill="#262626" x="390.4" y="465.1" width="61" height="24.65" shape-rendering="crispEdges"/><rect fill="#262626" x="451.4" y="465.1" width="134.2" height="24.65" shape-rendering="crispEdges"/><rect fill="#262626" x="585.6" y="465.1" width="353.8" height="24.65" shape-rendering="crispEdges"/><rect fill="#262626" x="939.4" y="465.1" width="12.2" height="24.65" shape-rendering="crispEdges"/><rect fill="#000000" x="951.6" y="465.1" width="24.4" height="24.65" shape-rendering="crispEdges"/><rect fill="#262626" x="0" y="489.5" width="12.2" height="24.65" shape-rendering="crispEdges"/><rect fill="#262626" x="12.2" y="489.5" width="24.4" height="24.65" shape-rendering="crispEdges"/><rect fill="#262626" x="36.6" y="489.5" width="353.8" height="24.65" shape-rendering="crispEdges"/><rect fill="#262626" x="390.4" y="489.5" width="61" height="24.65" shape-rendering="crispEdges"/><rect fill="#262626" x="451.4" y="489.5" width="122" height="24.65" shape-rendering="crispEdges"/><rect fill="#262626" x="573.4" y="489.5" width="366" height="24.65" shape-rendering="crispEdges"/><rect fill="#262626" x="939.4" y="489.5" width="12.2" height="24.65" shape-rendering="crispEdges"/><rect fill="#000000" x="951.6" y="489.5" width="24.4" height="24.65" shape-rendering="crispEdges"/><rect fill="#262626" x="0" y="513.9" width="12.2" height="24.65" shape-rendering="crispEdges"/><rect fill="#262626" x="12.2" y="513.9" width="24.4" height="24.65" shape-rendering="crispEdges"/><rect fill="#262626" x="36.6" y="513.9" width="353.8" height="24.65" shape-rendering="crispEdges"/><rect fill="#262626" x="390.4" y="513.9" width="61" height="24.65" shape-rendering="crispEdges"/><rect fill="#262626" x="451.4" y="513.9" width="134.2" height="24.65" shape-rendering="crispEdges"/><rect fill="#262626" x="585.6" y="513.9" width="353.8" height="24.65" shape-rendering="crispEdges"/><rect fill="#262626" x="939.4" y="513.9" width="12.2" height="24.65" shape-rendering="crispEdges"/><rect fill="#000000" x="951.6" y="513.9" width="24.4" height="24.65" shape-rendering="crispEdges"/><rect fill="#262626" x="0" y="538.3" width="12.2" height="24.65" shape-rendering="crispEdges"/><rect fill="#262626" x="12.2" y="538.3" width="24.4" height="24.65" shape-rendering="crispEdges"/><rect fill="#262626" x="36.6" y="538.3" width="341.6" height="24.65" shape-rendering="crispEdges"/><rect fill="#262626" x="378.2" y="538.3" width="61" height="24.65" shape-rendering="crispEdges"/><rect fill="#262626" x="439.2" y="538.3" width="146.4" height="24.65" shape-rendering="crispEdges"/><rect fill="#262626" x="585.6" y="538.3" width="353.8" height="24.65" shape-rendering="crispEdges"/><rect fill="#262626" x="939.4" y="538.3" width="12.2" height="24.65" shape-rendering="crispEdges"/><rect fill="#000000" x="951.6" y="538.3" width="24.4" height="24.65" shape-rendering="crispEdges"/><rect fill="#262626" x="0" y="562.7" width="36.6" height="24.65" shape-rendering="crispEdges"/><rect fill="#262626" x="36.6" y="562.7" width="24.4" height="24.65" shape-rendering="crispEdges"/><rect fill="#262626" x="61" y="562.7" width="61" height="24.65" shape-rendering="crispEdges"/><rect fill="#262626" x="122" y="562.7" width="683.2" height="24.65" shape-rendering="crispEdges"/><rect fill="#262626" x="805.2" y="562.7" width="12.2" height="24.65" shape-rendering="crispEdges"/><rect fill="#262626" x="817.4" y="562.7" width="24.4" height="24.65" shape-rendering="crispEdges"/><rect fill="#262626" x="841.8" y="562.7" width="97.6" height="24.65" shape-rendering="crispEdges"/><rect fill="#262626" x="939.4" y="562.7" width="12.2" height="24.65" shape-rendering="crispEdges"/><rect fill="#000000" x="951.6" y="562.7" width="24.4" height="24.65" shape-rendering="crispEdges"/>
    <g class="terminal-1150307565-matrix">
    <text class="terminal-1150307565-r1" x="0" y="20" textLength="12.2" clip-path="url(#terminal-1150307565-line-0)">┌</text><text class="terminal-1150307565-r1" x="12.2" y="20" textLength="939.4" clip-path="url(#terminal-1150307565-line-0)">─────────────────────────────────────────────────────────────────────────────</text><text class="terminal-1150307565-r3" x="976" y="20" textLength="12.2" clip-path="url(#terminal-1150307565-line-0)">
</text><text class="terminal-1150307565-r1" x="0" y="44.4" textLength="12.2" clip-path="url(#terminal-1150307565-line-1)">│</text><text class="terminal-1150307565-r3" x="976" y="44.4" textLength="12.2" clip-path="url(#terminal-1150307565-line-1)">
</text><text class="terminal-1150307565-r1" x="0" y="68.8" textLength="12.2" clip-path="url(#terminal-1150307565-line-2)">│</text><text class="terminal-1150307565-r4" x="463.6" y="68.8" textLength="24.4" clip-path="url(#terminal-1150307565-line-2)">도감</text><text class="terminal-1150307565-r3" x="976" y="68.8" textLength="12.2" clip-path="url(#terminal-1150307565-line-2)">
</text><text class="terminal-1150307565-r1" x="0" y="93.2" textLength="12.2" clip-path="url(#terminal-1150307565-line-3)">│</text><text class="terminal-1150307565-r5" x="366" y="93.2" textLength="158.6" clip-path="url(#terminal-1150307565-line-3)">총&#160;19종&#160;중&#160;4종&#160;잡음</text><text class="terminal-1150307565-r3" x="976" y="93.2" textLength="12.2" clip-path="url(#terminal-1150307565-line-3)">
</text><text class="terminal-1150307565-r1" x="0" y="117.6" textLength="12.2" clip-path="url(#terminal-1150307565-line-4)">│</text><text class="terminal-1150307565-r3" x="976" y="117.6" textLength="12.2" clip-path="url(#terminal-1150307565-line-4)">
</text><text class="terminal-1150307565-r1" x="0" y="142" textLength="12.2" clip-path="url(#terminal-1150307565-line-5)">│</text><text class="terminal-1150307565-r6" x="329.4" y="142" textLength="12.2" clip-path="url(#terminal-1150307565-line-5)">✓</text><text class="terminal-1150307565-r5" x="341.6" y="142" textLength="256.2" clip-path="url(#terminal-1150307565-line-5)">&#160;붕어&#160;&#160;★&#160;&#160;최대&#160;1.44kg&#160;&#160;x5</text><text class="terminal-1150307565-r3" x="976" y="142" textLength="12.2" clip-path="url(#terminal-1150307565-line-5)">
</text><text class="terminal-1150307565-r1" x="0" y="166.4" textLength="12.2" clip-path="url(#terminal-1150307565-line-6)">│</text><text class="terminal-1150307565-r6" x="317.2" y="166.4" textLength="12.2" clip-path="url(#terminal-1150307565-line-6)">✓</text><text class="terminal-1150307565-r5" x="329.4" y="166.4" textLength="268.4" clip-path="url(#terminal-1150307565-line-6)">&#160;용붕어&#160;&#160;★&#160;&#160;최대&#160;0.68kg&#160;&#160;x2</text><text class="terminal-1150307565-r3" x="976" y="166.4" textLength="12.2" clip-path="url(#terminal-1150307565-line-6)">
</text><text class="terminal-1150307565-r1" x="0" y="190.8" textLength="12.2" clip-path="url(#terminal-1150307565-line-7)">│</text><text class="terminal-1150307565-r7" x="402.6" y="190.8" textLength="61" clip-path="url(#terminal-1150307565-line-7)">?&#160;?&#160;?</text><text class="terminal-1150307565-r5" x="463.6" y="190.8" textLength="97.6" clip-path="url(#terminal-1150307565-line-7)">&#160;&#160;★&#160;&#160;???</text><text class="terminal-1150307565-r3" x="976" y="190.8" textLength="12.2" clip-path="url(#terminal-1150307565-line-7)">
</text><text class="terminal-1150307565-r1" x="0" y="215.2" textLength="12.2" clip-path="url(#terminal-1150307565-line-8)">│</text><text class="terminal-1150307565-r6" x="305" y="215.2" textLength="12.2" clip-path="url(#terminal-1150307565-line-8)">✓</text><text class="terminal-1150307565-r5" x="317.2" y="215.2" textLength="280.6" clip-path="url(#terminal-1150307565-line-8)">&#160;틸라피아&#160;&#160;★&#160;&#160;최대&#160;0.63kg&#160;&#160;x2</text><text class="terminal-1150307565-r3" x="976" y="215.2" textLength="12.2" clip-path="url(#terminal-1150307565-line-8)">
</text><text class="terminal-1150307565-r1" x="0" y="239.6" textLength="12.2" clip-path="url(#terminal-1150307565-line-9)">│</text><text class="terminal-1150307565-r6" x="329.4" y="239.6" textLength="12.2" clip-path="url(#terminal-1150307565-line-9)">✓</text><text class="terminal-1150307565-r5" x="341.6" y="239.6" textLength="256.2" clip-path="url(#terminal-1150307565-line-9)">&#160;송어&#160;&#160;★★&#160;&#160;최대&#160;2.1kg&#160;&#160;x2</text><text class="terminal-1150307565-r3" x="976" y="239.6" textLength="12.2" clip-path="url(#terminal-1150307565-line-9)">
</text><text class="terminal-1150307565-r1" x="0" y="264" textLength="12.2" clip-path="url(#terminal-1150307565-line-10)">│</text><text class="terminal-1150307565-r7" x="402.6" y="264" textLength="61" clip-path="url(#terminal-1150307565-line-10)">?&#160;?&#160;?</text><text class="terminal-1150307565-r5" x="463.6" y="264" textLength="109.8" clip-path="url(#terminal-1150307565-line-10)">&#160;&#160;★★&#160;&#160;???</text><text class="terminal-1150307565-r3" x="976" y="264" textLength="12.2" clip-path="url(#terminal-1150307565-line-10)">
</text><text class="terminal-1150307565-r1" x="0" y="288.4" textLength="12.2" clip-path="url(#terminal-1150307565-line-11)">│</text><text class="terminal-1150307565-r7" x="402.6" y="288.4" textLength="61" clip-path="url(#terminal-1150307565-line-11)">?&#160;?&#160;?</text><text class="terminal-1150307565-r5" x="463.6" y="288.4" textLength="109.8" clip-path="url(#terminal-1150307565-line-11)">&#160;&#160;★★&#160;&#160;???</text><text class="terminal-1150307565-r3" x="976" y="288.4" textLength="12.2" clip-path="url(#terminal-1150307565-line-11)">
</text><text class="terminal-1150307565-r1" x="0" y="312.8" textLength="12.2" clip-path="url(#terminal-1150307565-line-12)">│</text><text class="terminal-1150307565-r7" x="402.6" y="312.8" textLength="61" clip-path="url(#terminal-1150307565-line-12)">?&#160;?&#160;?</text><text class="terminal-1150307565-r5" x="463.6" y="312.8" textLength="109.8" clip-path="url(#terminal-1150307565-line-12)">&#160;&#160;★★&#160;&#160;???</text><text class="terminal-1150307565-r3" x="976" y="312.8" textLength="12.2" clip-path="url(#terminal-1150307565-line-12)">
</text><text class="terminal-1150307565-r1" x="0" y="337.2" textLength="12.2" clip-path="url(#terminal-1150307565-line-13)">│</text><text class="terminal-1150307565-r7" x="390.4" y="337.2" textLength="61" clip-path="url(#terminal-1150307565-line-13)">?&#160;?&#160;?</text><text class="terminal-1150307565-r5" x="451.4" y="337.2" textLength="122" clip-path="url(#terminal-1150307565-line-13)">&#160;&#160;★★★&#160;&#160;???</text><text class="terminal-1150307565-r3" x="976" y="337.2" textLength="12.2" clip-path="url(#terminal-1150307565-line-13)">
</text><text class="terminal-1150307565-r1" x="0" y="361.6" textLength="12.2" clip-path="url(#terminal-1150307565-line-14)">│</text><text class="terminal-1150307565-r7" x="390.4" y="361.6" textLength="61" clip-path="url(#terminal-1150307565-line-14)">?&#160;?&#160;?</text><text class="terminal-1150307565-r5" x="451.4" y="361.6" textLength="122" clip-path="url(#terminal-1150307565-line-14)">&#160;&#160;★★★&#160;&#160;???</text><text class="terminal-1150307565-r8" x="951.6" y="361.6" textLength="24.4" clip-path="url(#terminal-1150307565-line-14)">▄▄</text><text class="terminal-1150307565-r3" x="976" y="361.6" textLength="12.2" clip-path="url(#terminal-1150307565-line-14)">
</text><text class="terminal-1150307565-r1" x="0" y="386" textLength="12.2" clip-path="url(#terminal-1150307565-line-15)">│</text><text class="terminal-1150307565-r7" x="390.4" y="386" textLength="61" clip-path="url(#terminal-1150307565-line-15)">?&#160;?&#160;?</text><text class="terminal-1150307565-r5" x="451.4" y="386" textLength="134.2" clip-path="url(#terminal-1150307565-line-15)">&#160;&#160;★★★★&#160;&#160;???</text><text class="terminal-1150307565-r3" x="976" y="386" textLength="12.2" clip-path="url(#terminal-1150307565-line-15)">
</text><text class="terminal-1150307565-r1" x="0" y="410.4" textLength="12.2" clip-path="url(#terminal-1150307565-line-16)">│</text><text class="terminal-1150307565-r7" x="390.4" y="410.4" textLength="61" clip-path="url(#terminal-1150307565-line-16)">?&#160;?&#160;?</text><text class="terminal-1150307565-r5" x="451.4" y="410.4" textLength="134.2" clip-path="url(#terminal-1150307565-line-16)">&#160;&#160;★★★★&#160;&#160;???</text><text class="terminal-1150307565-r3" x="976" y="410.4" textLength="12.2" clip-path="url(#terminal-1150307565-line-16)">
</text><text class="terminal-1150307565-r1" x="0" y="434.8" textLength="12.2" clip-path="url(#terminal-1150307565-line-17)">│</text><text class="terminal-1150307565-r7" x="390.4" y="434.8" textLength="61" clip-path="url(#terminal-1150307565-line-17)">?&#160;?&#160;?</text><text class="terminal-1150307565-r5" x="451.4" y="434.8" textLength="134.2" clip-path="url(#terminal-1150307565-line-17)">&#160;&#160;★★★★&#160;&#160;???</text><text class="terminal-1150307565-r3" x="976" y="434.8" textLength="12.2" clip-path="url(#terminal-1150307565-line-17)">
</text><text class="terminal-1150307565-r1" x="0" y="459.2" textLength="12.2" clip-path="url(#terminal-1150307565-line-18)">│</text><text class="terminal-1150307565-r7" x="402.6" y="459.2" textLength="61" clip-path="url(#terminal-1150307565-line-18)">?&#160;?&#160;?</text><text class="terminal-1150307565-r5" x="463.6" y="459.2" textLength="109.8" clip-path="url(#terminal-1150307565-line-18)">&#160;&#160;★★&#160;&#160;???</text><text class="terminal-1150307565-r3" x="976" y="459.2" textLength="12.2" clip-path="url(#terminal-1150307565-line-18)">
</text><text class="terminal-1150307565-r1" x="0" y="483.6" textLength="12.2" clip-path="url(#terminal-1150307565-line-19)">│</text><text class="terminal-1150307565-r7" x="390.4" y="483.6" textLength="61" clip-path="url(#terminal-1150307565-line-19)">?&#160;?&#160;?</text><text class="terminal-1150307565-r5" x="451.4" y="483.6" textLength="134.2" clip-path="url(#terminal-1150307565-line-19)">&#160;&#160;★★★★&#160;&#160;???</text><text class="terminal-1150307565-r3" x="976" y="483.6" textLength="12.2" clip-path="url(#terminal-1150307565-line-19)">
</text><text class="terminal-1150307565-r1" x="0" y="508" textLength="12.2" clip-path="url(#terminal-1150307565-line-20)">│</text><text class="terminal-1150307565-r7" x="390.4" y="508" textLength="61" clip-path="url(#terminal-1150307565-line-20)">?&#160;?&#160;?</text><text class="terminal-1150307565-r5" x="451.4" y="508" textLength="122" clip-path="url(#terminal-1150307565-line-20)">&#160;&#160;★★★&#160;&#160;???</text><text class="terminal-1150307565-r3" x="976" y="508" textLength="12.2" clip-path="url(#terminal-1150307565-line-20)">
</text><text class="terminal-1150307565-r1" x="0" y="532.4" textLength="12.2" clip-path="url(#terminal-1150307565-line-21)">│</text><text class="terminal-1150307565-r7" x="390.4" y="532.4" textLength="61" clip-path="url(#terminal-1150307565-line-21)">?&#160;?&#160;?</text><text class="terminal-1150307565-r5" x="451.4" y="532.4" textLength="134.2" clip-path="url(#terminal-1150307565-line-21)">&#160;&#160;★★★★&#160;&#160;???</text><text class="terminal-1150307565-r3" x="976" y="532.4" textLength="12.2" clip-path="url(#terminal-1150307565-line-21)">
</text><text class="terminal-1150307565-r1" x="0" y="556.8" textLength="12.2" clip-path="url(#terminal-1150307565-line-22)">│</text><text class="terminal-1150307565-r7" x="378.2" y="556.8" textLength="61" clip-path="url(#terminal-1150307565-line-22)">?&#160;?&#160;?</text><text class="terminal-1150307565-r5" x="439.2" y="556.8" textLength="146.4" clip-path="url(#terminal-1150307565-line-22)">&#160;&#160;★★★★★&#160;&#160;???</text><text class="terminal-1150307565-r3" x="976" y="556.8" textLength="12.2" clip-path="url(#terminal-1150307565-line-22)">
</text><text class="terminal-1150307565-r4" x="0" y="581.2" textLength="36.6" clip-path="url(#terminal-1150307565-line-23)">&#160;es</text><text class="terminal-1150307565-r4" x="36.6" y="581.2" textLength="24.4" clip-path="url(#terminal-1150307565-line-23)">c&#160;</text><text class="terminal-1150307565-r5" x="61" y="581.2" textLength="36.6" clip-path="url(#terminal-1150307565-line-23)">뒤로&#160;</text><text class="terminal-1150307565-r9" x="805.2" y="581.2" textLength="12.2" clip-path="url(#terminal-1150307565-line-23)">▏</text><text class="terminal-1150307565-r4" x="817.4" y="581.2" textLength="24.4" clip-path="url(#terminal-1150307565-line-23)">^p</text><text class="terminal-1150307565-r5" x="841.8" y="581.2" textLength="97.6" clip-path="url(#terminal-1150307565-line-23)">&#160;palette</text>
    </g>
    </g>
</svg>
