<svg class="rich-terminal" viewBox="0 0 1019 1026.0" xmlns="http://www.w3.org/2000/svg">
    <!-- Generated with Rich https://www.textualize.io -->
    <style>

    @font-face {
        font-family: "Fira Code";
        src: local("FiraCode-Regular"),
                url("https://cdnjs.cloudflare.com/ajax/libs/firacode/6.2.0/woff2/FiraCode-Regular.woff2") format("woff2"),
                url("https://cdnjs.cloudflare.com/ajax/libs/firacode/6.2.0/woff/FiraCode-Regular.woff") format("woff");
        font-style: normal;
        font-weight: 400;
    }
    @font-face {
        font-family: "Fira Code";
        src: local("FiraCode-Bold"),
                url("https://cdnjs.cloudflare.com/ajax/libs/firacode/6.2.0/woff2/FiraCode-Bold.woff2") format("woff2"),
                url("https://cdnjs.cloudflare.com/ajax/libs/firacode/6.2.0/woff/FiraCode-Bold.woff") format("woff");
        font-style: bold;
        font-weight: 700;
    }

    .terminal-1550102608-matrix {
        font-family: Fira Code, monospace;
        font-size: 20px;
        line-height: 24.4px;
        font-variant-east-asian: full-width;
    }

    .terminal-1550102608-title {
        font-size: 18px;
        font-weight: bold;
        font-family: arial;
    }

    .terminal-1550102608-r1 { fill: #e0e0e0 }
.terminal-1550102608-r2 { fill: #c5c8c6 }
.terminal-1550102608-r3 { fill: #98e024 }
.terminal-1550102608-r4 { fill: #999999 }
.terminal-1550102608-r5 { fill: #ffa62b;font-weight: bold }
.terminal-1550102608-r6 { fill: #495259 }
    </style>

    <defs>
    <clipPath id="terminal-1550102608-clip-terminal">
      <rect x="0" y="0" width="999.4" height="975.0" />
    </clipPath>
    <clipPath id="terminal-1550102608-line-0">
    <rect x="0" y="1.5" width="1000.4" height="24.65"/>
            </clipPath>
<clipPath id="terminal-1550102608-line-1">
    <rect x="0" y="25.9" width="1000.4" height="24.65"/>
            </clipPath>
<clipPath id="terminal-1550102608-line-2">
    <rect x="0" y="50.3" width="1000.4" height="24.65"/>
            </clipPath>
<clipPath id="terminal-1550102608-line-3">
    <rect x="0" y="74.7" width="1000.4" height="24.65"/>
            </clipPath>
<clipPath id="terminal-1550102608-line-4">
    <rect x="0" y="99.1" width="1000.4" height="24.65"/>
            </clipPath>
<clipPath id="terminal-1550102608-line-5">
    <rect x="0" y="123.5" width="1000.4" height="24.65"/>
            </clipPath>
<clipPath id="terminal-1550102608-line-6">
    <rect x="0" y="147.9" width="1000.4" height="24.65"/>
            </clipPath>
<clipPath id="terminal-1550102608-line-7">
    <rect x="0" y="172.3" width="1000.4" height="24.65"/>
            </clipPath>
<clipPath id="terminal-1550102608-line-8">
    <rect x="0" y="196.7" width="1000.4" height="24.65"/>
            </clipPath>
<clipPath id="terminal-1550102608-line-9">
    <rect x="0" y="221.1" width="1000.4" height="24.65"/>
            </clipPath>
<clipPath id="terminal-1550102608-line-10">
    <rect x="0" y="245.5" width="1000.4" height="24.65"/>
            </clipPath>
<clipPath id="terminal-1550102608-line-11">
    <rect x="0" y="269.9" width="1000.4" height="24.65"/>
            </clipPath>
<clipPath id="terminal-1550102608-line-12">
    <rect x="0" y="294.3" width="1000.4" height="24.65"/>
            </clipPath>
<clipPath id="terminal-1550102608-line-13">
    <rect x="0" y="318.7" width="1000.4" height="24.65"/>
            </clipPath>
<clipPath id="terminal-1550102608-line-14">
    <rect x="0" y="343.1" width="1000.4" height="24.65"/>
            </clipPath>
<clipPath id="terminal-1550102608-line-15">
    <rect x="0" y="367.5" width="1000.4" height="24.65"/>
            </clipPath>
<clipPath id="terminal-1550102608-line-16">
    <rect x="0" y="391.9" width="1000.4" height="24.65"/>
            </clipPath>
<clipPath id="terminal-1550102608-line-17">
    <rect x="0" y="416.3" width="1000.4" height="24.65"/>
            </clipPath>
<clipPath id="terminal-1550102608-line-18">
    <rect x="0" y="440.7" width="1000.4" height="24.65"/>
            </clipPath>
<clipPath id="terminal-1550102608-line-19">
    <rect x="0" y="465.1" width="1000.4" height="24.65"/>
            </clipPath>
<clipPath id="terminal-1550102608-line-20">
    <rect x="0" y="489.5" width="1000.4" height="24.65"/>
            </clipPath>
<clipPath id="terminal-1550102608-line-21">
    <rect x="0" y="513.9" width="1000.4" height="24.65"/>
            </clipPath>
<clipPath id="terminal-1550102608-line-22">
    <rect x="0" y="538.3" width="1000.4" height="24.65"/>
            </clipPath>
<clipPath id="terminal-1550102608-line-23">
    <rect x="0" y="562.7" width="1000.4" height="24.65"/>
            </clipPath>
<clipPath id="terminal-1550102608-line-24">
    <rect x="0" y="587.1" width="1000.4" height="24.65"/>
            </clipPath>
<clipPath id="terminal-1550102608-line-25">
    <rect x="0" y="611.5" width="1000.4" height="24.65"/>
            </clipPath>
<clipPath id="terminal-1550102608-line-26">
    <rect x="0" y="635.9" width="1000.4" height="24.65"/>
            </clipPath>
<clipPath id="terminal-1550102608-line-27">
    <rect x="0" y="660.3" width="1000.4" height="24.65"/>
            </clipPath>
<clipPath id="terminal-1550102608-line-28">
    <rect x="0" y="684.7" width="1000.4" height="24.65"/>
            </clipPath>
<clipPath id="terminal-1550102608-line-29">
    <rect x="0" y="709.1" width="1000.4" height="24.65"/>
            </clipPath>
<clipPath id="terminal-1550102608-line-30">
    <rect x="0" y="733.5" width="1000.4" height="24.65"/>
            </clipPath>
<clipPath id="terminal-1550102608-line-31">
    <rect x="0" y="757.9" width="1000.4" height="24.65"/>
            </clipPath>
<clipPath id="terminal-1550102608-line-32">
    <rect x="0" y="782.3" width="1000.4" height="24.65"/>
            </clipPath>
<clipPath id="terminal-1550102608-line-33">
    <rect x="0" y="806.7" width="1000.4" height="24.65"/>
            </clipPath>
<clipPath id="terminal-1550102608-line-34">
    <rect x="0" y="831.1" width="1000.4" height="24.65"/>
            </clipPath>
<clipPath id="terminal-1550102608-line-35">
    <rect x="0" y="855.5" width="1000.4" height="24.65"/>
            </clipPath>
<clipPath id="terminal-1550102608-line-36">
    <rect x="0" y="879.9" width="1000.4" height="24.65"/>
            </clipPath>
<clipPath id="terminal-1550102608-line-37">
    <rect x="0" y="904.3" width="1000.4" height="24.65"/>
            </clipPath>
<clipPath id="terminal-1550102608-line-38">
    <rect x="0" y="928.7" width="1000.4" height="24.65"/>
            </clipPath>
    </defs>

    <rect fill="#292929" stroke="rgba(255,255,255,0.35)" stroke-width="1" x="1" y="1" width="1017" height="1024" rx="8"/><text class="terminal-1550102608-title" fill="#c5c8c6" text-anchor="middle" x="508" y="27">CaptureApp</text>
            <g transform="translate(26,22)">
            <circle cx="0" cy="0" r="7" fill="#ff5f57"/>
            <circle cx="22" cy="0" r="7" fill="#febc2e"/>
            <circle cx="44" cy="0" r="7" fill="#28c840"/>
            </g>
        
    <g transform="translate(9, 41)" clip-path="url(#terminal-1550102608-clip-terminal)">
    <rect fill="#121212" x="0" y="1.5" width="48.8" height="24.65" shape-rendering="crispEdges"/><rect fill="#121212" x="48.8" y="1.5" width="951.6" height="24.65" shape-rendering="crispEdges"/><rect fill="#121212" x="0" y="25.9" width="231.8" height="24.65" shape-rendering="crispEdges"/><rect fill="#121212" x="231.8" y="25.9" width="768.6" height="24.65" shape-rendering="crispEdges"/><rect fill="#121212" x="0" y="50.3" width="0" height="24.65" shape-rendering="crispEdges"/><rect fill="#121212" x="0" y="50.3" width="1000.4" height="24.65" shape-rendering="crispEdges"/><rect fill="#121212" x="0" y="74.7" width="12.2" height="24.65" shape-rendering="crispEdges"/><rect fill="#121212" x="12.2" y="74.7" width="305" height="24.65" shape-rendering="crispEdges"/><rect fill="#121212" x="317.2" y="74.7" width="683.2" height="24.65" shape-rendering="crispEdges"/><rect fill="#121212" x="0" y="99.1" width="12.2" height="24.65" shape-rendering="crispEdges"/><rect fill="#121212" x="12.2" y="99.1" width="329.4" height="24.65" shape-rendering="crispEdges"/><rect fill="#121212" x="341.6" y="99.1" width="658.8" height="24.65" shape-rendering="crispEdges"/><rect fill="#121212" x="0" y="123.5" width="61" height="24.65" shape-rendering="crispEdges"/><rect fill="#121212" x="61" y="123.5" width="97.6" height="24.65" shape-rendering="crispEdges"/><rect fill="#121212" x="158.6" y="123.5" width="841.8" height="24.65" shape-rendering="crispEdges"/><rect fill="#121212" x="0" y="147.9" width="12.2" height="24.65" shape-rendering="crispEdges"/><rect fill="#121212" x="12.2" y="147.9" width="353.8" height="24.65" shape-rendering="crispEdges"/><rect fill="#121212" x="366" y="147.9" width="634.4" height="24.65" shape-rendering="crispEdges"/><rect fill="#121212" x="0" y="172.3" width="12.2" height="24.65" shape-rendering="crispEdges"/><rect fill="#121212" x="12.2" y="172.3" width="305" height="24.65" shape-rendering="crispEdges"/><rect fill="#121212" x="317.2" y="172.3" width="683.2" height="24.65" shape-rendering="crispEdges"/><rect fill="#121212" x="0" y="196.7" width="61" height="24.65" shape-rendering="crispEdges"/><rect fill="#121212" x="61" y="196.7" width="109.8" height="24.65" shape-rendering="crispEdges"/><rect fill="#121212" x="170.8" y="196.7" width="829.6" height="24.65" shape-rendering="crispEdges"/><rect fill="#121212" x="0" y="221.1" width="61" height="24.65" shape-rendering="crispEdges"/><rect fill="#121212" x="61" y="221.1" width="109.8" height="24.65" shape-rendering="crispEdges"/><rect fill="#121212" x="170.8" y="221.1" width="829.6" height="24.65" shape-rendering="crispEdges"/><rect fill="#121212" x="0" y="245.5" width="61" height="24.65" shape-rendering="crispEdges"/><rect fill="#121212" x="61" y="245.5" width="109.8" height="24.65" shape-rendering="crispEdges"/><rect fill="#121212" x="170.8" y="245.5" width="829.6" height="24.65" shape-rendering="crispEdges"/><rect fill="#121212" x="0" y="269.9" width="61" height="24.65" shape-rendering="crispEdges"/><rect fill="#121212" x="61" y="269.9" width="122" height="24.65" shape-rendering="crispEdges"/><rect fill="#121212" x="183" y="269.9" width="817.4" height="24.65" shape-rendering="crispEdges"/><rect fill="#121212" x="0" y="294.3" width="61" height="24.65" shape-rendering="crispEdges"/><rect fill="#121212" x="61" y="294.3" width="122" height="24.65" shape-rendering="crispEdges"/><rect fill="#121212" x="183" y="294.3" width="817.4" height="24.65" shape-rendering="crispEdges"/><rect fill="#121212" x="0" y="318.7" width="61" height="24.65" shape-rendering="crispEdges"/><rect fill="#121212" x="61" y="318.7" width="134.2" height="24.65" shape-rendering="crispEdges"/><rect fill="#121212" x="195.2" y="318.7" width="805.2" height="24.65" shape-rendering="crispEdges"/><rect fill="#121212" x="0" y="343.1" width="61" height="24.65" shape-rendering="crispEdges"/><rect fill="#121212" x="61" y="343.1" width="134.2" height="24.65" shape-rendering="crispEdges"/><rect fill="#121212" x="195.2" y="343.1" width="805.2" height="24.65" shape-rendering="crispEdges"/><rect fill="#121212" x="0" y="367.5" width="61" height="24.65" shape-rendering="crispEdges"/><rect fill="#121212" x="61" y="367.5" width="134.2" height="24.65" shape-rendering="crispEdges"/><rect fill="#121212" x="195.2" y="367.5" width="805.2" height="24.65" shape-rendering="crispEdges"/><rect fill="#121212" x="0" y="391.9" width="61" height="24.65" shape-rendering="crispEdges"/><rect fill="#121212" x="61" y="391.9" width="109.8" height="24.65" shape-rendering="crispEdges"/><rect fill="#121212" x="170.8" y="391.9" width="829.6" height="24.65" shape-rendering="crispEdges"/><rect fill="#121212" x="0" y="416.3" width="61" height="24.65" shape-rendering="crispEdges"/><rect fill="#121212" x="61" y="416.3" width="134.2" height="24.65" shape-rendering="crispEdges"/><rect fill="#121212" x="195.2" y="416.3" width="805.2" height="24.65" shape-rendering="crispEdges"/><rect fill="#121212" x="0" y="440.7" width="61" height="24.65" shape-rendering="crispEdges"/><rect fill="#121212" x="61" y="440.7" width="122" height="24.65" shape-rendering="crispEdges"/><rect fill="#121212" x="183" y="440.7" width="817.4" height="24.65" shape-rendering="crispEdges"/><rect fill="#121212" x="0" y="465.1" width="61" height="24.65" shape-rendering="crispEdges"/><rect fill="#121212" x="61" y="465.1" width="134.2" height="24.65" shape-rendering="crispEdges"/><rect fill="#121212" x="195.2" y="465.1" width="805.2" height="24.65" shape-rendering="crispEdges"/><rect fill="#121212" x="0" y="489.5" width="61" height="24.65" shape-rendering="crispEdges"/><rect fill="#121212" x="61" y="489.5" width="146.4" height="24.65" shape-rendering="crispEdges"/><rect fill="#121212" x="207.4" y="489.5" width="793" height="24.65" shape-rendering="crispEdges"/><rect fill="#121212" x="0" y="513.9" width="61" height="24.65" shape-rendering="crispEdges"/><rect fill="#121212" x="61" y="513.9" width="146.4" height="24.65" shape-rendering="crispEdges"/><rect fill="#121212" x="207.4" y="513.9" width="793" height="24.65" shape-rendering="crispEdges"/><rect fill="#121212" x="0" y="538.3" width="61" height="24.65" shape-rendering="crispEdges"/><rect fill="#121212" x="61" y="538.3" width="122" height="24.65" shape-rendering="crispEdges"/><rect fill="#121212" x="183" y="538.3" width="817.4" height="24.65" shape-rendering="crispEdges"/><rect fill="#121212" x="0" y="562.7" width="61" height="24.65" shape-rendering="crispEdges"/><rect fill="#121212" x="61" y="562.7" width="122" height="24.65" shape-rendering="crispEdges"/><rect fill="#121212" x="183" y="562.7" width="817.4" height="24.65" shape-rendering="crispEdges"/><rect fill="#121212" x="0" y="587.1" width="61" height="24.65" shape-rendering="crispEdges"/><rect fill="#121212" x="61" y="587.1" width="109.8" height="24.65" shape-rendering="crispEdges"/><rect fill="#121212" x="170.8" y="587.1" width="829.6" height="24.65" shape-rendering="crispEdges"/><rect fill="#121212" x="0" y="611.5" width="61" height="24.65" shape-rendering="crispEdges"/><rect fill="#121212" x="61" y="611.5" width="109.8" height="24.65" shape-rendering="crispEdges"/><rect fill="#121212" x="170.8" y="611.5" width="829.6" height="24.65" shape-rendering="crispEdges"/><rect fill="#121212" x="0" y="635.9" width="61" height="24.65" shape-rendering="crispEdges"/><rect fill="#121212" x="61" y="635.9" width="134.2" height="24.65" shape-rendering="crispEdges"/><rect fill="#121212" x="195.2" y="635.9" width="805.2" height="24.65" shape-rendering="crispEdges"/><rect fill="#121212" x="0" y="660.3" width="61" height="24.65" shape-rendering="crispEdges"/><rect fill="#121212" x="61" y="660.3" width="97.6" height="24.65" shape-rendering="crispEdges"/><rect fill="#121212" x="158.6" y="660.3" width="841.8" height="24.65" shape-rendering="crispEdges"/><rect fill="#121212" x="0" y="684.7" width="0" height="24.65" shape-rendering="crispEdges"/><rect fill="#121212" x="0" y="684.7" width="1000.4" height="24.65" shape-rendering="crispEdges"/><rect fill="#121212" x="0" y="709.1" width="195.2" height="24.65" shape-rendering="crispEdges"/><rect fill="#121212" x="195.2" y="709.1" width="805.2" height="24.65" shape-rendering="crispEdges"/><rect fill="#121212" x="0" y="733.5" width="1000.4" height="24.65" shape-rendering="crispEdges"/><rect fill="#121212" x="0" y="757.9" width="1000.4" height="24.65" shape-rendering="crispEdges"/><rect fill="#121212" x="0" y="782.3" width="1000.4" height="24.65" shape-rendering="crispEdges"/><rect fill="#121212" x="0" y="806.7" width="1000.4" height="24.65" shape-rendering="crispEdges"/><rect fill="#121212" x="0" y="831.1" width="1000.4" height="24.65" shape-rendering="crispEdges"/><rect fill="#121212" x="0" y="855.5" width="1000.4" height="24.65" shape-rendering="crispEdges"/><rect fill="#121212" x="0" y="879.9" width="1000.4" height="24.65" shape-rendering="crispEdges"/><rect fill="#121212" x="0" y="904.3" width="1000.4" height="24.65" shape-rendering="crispEdges"/><rect fill="#121212" x="0" y="928.7" width="1000.4" height="24.65" shape-rendering="crispEdges"/><rect fill="#242f38" x="0" y="953.1" width="61" height="24.65" shape-rendering="crispEdges"/><rect fill="#242f38" x="61" y="953.1" width="61" height="24.65" shape-rendering="crispEdges"/><rect fill="#242f38" x="122" y="953.1" width="732" height="24.65" shape-rendering="crispEdges"/><rect fill="#242f38" x="854" y="953.1" width="12.2" height="24.65" shape-rendering="crispEdges"/><rect fill="#242f38" x="866.2" y="953.1" width="24.4" height="24.65" shape-rendering="crispEdges"/><rect fill="#242f38" x="890.6" y="953.1" width="97.6" height="24.65" shape-rendering="crispEdges"/><rect fill="#242f38" x="988.2" y="953.1" width="12.2" height="24.65" shape-rendering="crispEdges"/>
    <g class="terminal-1550102608-matrix">
    <text class="terminal-1550102608-r1" x="0" y="20" textLength="24.4" clip-path="url(#terminal-1550102608-line-0)">도감</text><text class="terminal-1550102608-r2" x="1000.4" y="20" textLength="12.2" clip-path="url(#terminal-1550102608-line-0)">
</text><text class="terminal-1550102608-r1" x="0" y="44.4" textLength="158.6" clip-path="url(#terminal-1550102608-line-1)">총&#160;25종&#160;중&#160;4종&#160;잡음</text><text class="terminal-1550102608-r2" x="1000.4" y="44.4" textLength="12.2" clip-path="url(#terminal-1550102608-line-1)">
</text><text class="terminal-1550102608-r2" x="1000.4" y="68.8" textLength="12.2" clip-path="url(#terminal-1550102608-line-2)">
</text><text class="terminal-1550102608-r3" x="0" y="93.2" textLength="12.2" clip-path="url(#terminal-1550102608-line-3)">✓</text><text class="terminal-1550102608-r1" x="12.2" y="93.2" textLength="256.2" clip-path="url(#terminal-1550102608-line-3)">&#160;붕어&#160;&#160;★&#160;&#160;최대&#160;1.44kg&#160;&#160;x5</text><text class="terminal-1550102608-r2" x="1000.4" y="93.2" textLength="12.2" clip-path="url(#terminal-1550102608-line-3)">
</text><text class="terminal-1550102608-r3" x="0" y="117.6" textLength="12.2" clip-path="url(#terminal-1550102608-line-4)">✓</text><text class="terminal-1550102608-r1" x="12.2" y="117.6" textLength="268.4" clip-path="url(#terminal-1550102608-line-4)">&#160;용붕어&#160;&#160;★&#160;&#160;최대&#160;0.68kg&#160;&#160;x2</text><text class="terminal-1550102608-r2" x="1000.4" y="117.6" textLength="12.2" clip-path="url(#terminal-1550102608-line-4)">
</text><text class="terminal-1550102608-r4" x="0" y="142" textLength="61" clip-path="url(#terminal-1550102608-line-5)">?&#160;?&#160;?</text><text class="terminal-1550102608-r1" x="61" y="142" textLength="97.6" clip-path="url(#terminal-1550102608-line-5)">&#160;&#160;★&#160;&#160;???</text><text class="terminal-1550102608-r2" x="1000.4" y="142" textLength="12.2" clip-path="url(#terminal-1550102608-line-5)">
</text><text class="terminal-1550102608-r3" x="0" y="166.4" textLength="12.2" clip-path="url(#terminal-1550102608-line-6)">✓</text><text class="terminal-1550102608-r1" x="12.2" y="166.4" textLength="280.6" clip-path="url(#terminal-1550102608-line-6)">&#160;틸라피아&#160;&#160;★&#160;&#160;최대&#160;0.63kg&#160;&#160;x2</text><text class="terminal-1550102608-r2" x="1000.4" y="166.4" textLength="12.2" clip-path="url(#terminal-1550102608-line-6)">
</text><text class="terminal-1550102608-r3" x="0" y="190.8" textLength="12.2" clip-path="url(#terminal-1550102608-line-7)">✓</text><text class="terminal-1550102608-r1" x="12.2" y="190.8" textLength="256.2" clip-path="url(#terminal-1550102608-line-7)">&#160;송어&#160;&#160;★★&#160;&#160;최대&#160;2.1kg&#160;&#160;x2</text><text class="terminal-1550102608-r2" x="1000.4" y="190.8" textLength="12.2" clip-path="url(#terminal-1550102608-line-7)">
</text><text class="terminal-1550102608-r4" x="0" y="215.2" textLength="61" clip-path="url(#terminal-1550102608-line-8)">?&#160;?&#160;?</text><text class="terminal-1550102608-r1" x="61" y="215.2" textLength="109.8" clip-path="url(#terminal-1550102608-line-8)">&#160;&#160;★★&#160;&#160;???</text><text class="terminal-1550102608-r2" x="1000.4" y="215.2" textLength="12.2" clip-path="url(#terminal-1550102608-line-8)">
</text><text class="terminal-1550102608-r4" x="0" y="239.6" textLength="61" clip-path="url(#terminal-1550102608-line-9)">?&#160;?&#160;?</text><text class="terminal-1550102608-r1" x="61" y="239.6" textLength="109.8" clip-path="url(#terminal-1550102608-line-9)">&#160;&#160;★★&#160;&#160;???</text><text class="terminal-1550102608-r2" x="1000.4" y="239.6" textLength="12.2" clip-path="url(#terminal-1550102608-line-9)">
</text><text class="terminal-1550102608-r4" x="0" y="264" textLength="61" clip-path="url(#terminal-1550102608-line-10)">?&#160;?&#160;?</text><text class="terminal-1550102608-r1" x="61" y="264" textLength="109.8" clip-path="url(#terminal-1550102608-line-10)">&#160;&#160;★★&#160;&#160;???</text><text class="terminal-1550102608-r2" x="1000.4" y="264" textLength="12.2" clip-path="url(#terminal-1550102608-line-10)">
</text><text class="terminal-1550102608-r4" x="0" y="288.4" textLength="61" clip-path="url(#terminal-1550102608-line-11)">?&#160;?&#160;?</text><text class="terminal-1550102608-r1" x="61" y="288.4" textLength="122" clip-path="url(#terminal-1550102608-line-11)">&#160;&#160;★★★&#160;&#160;???</text><text class="terminal-1550102608-r2" x="1000.4" y="288.4" textLength="12.2" clip-path="url(#terminal-1550102608-line-11)">
</text><text class="terminal-1550102608-r4" x="0" y="312.8" textLength="61" clip-path="url(#terminal-1550102608-line-12)">?&#160;?&#160;?</text><text class="terminal-1550102608-r1" x="61" y="312.8" textLength="122" clip-path="url(#terminal-1550102608-line-12)">&#160;&#160;★★★&#160;&#160;???</text><text class="terminal-1550102608-r2" x="1000.4" y="312.8" textLength="12.2" clip-path="url(#terminal-1550102608-line-12)">
</text><text class="terminal-1550102608-r4" x="0" y="337.2" textLength="61" clip-path="url(#terminal-1550102608-line-13)">?&#160;?&#160;?</text><text class="terminal-1550102608-r1" x="61" y="337.2" textLength="134.2" clip-path="url(#terminal-1550102608-line-13)">&#160;&#160;★★★★&#160;&#160;???</text><text class="terminal-1550102608-r2" x="1000.4" y="337.2" textLength="12.2" clip-path="url(#terminal-1550102608-line-13)">
</text><text class="terminal-1550102608-r4" x="0" y="361.6" textLength="61" clip-path="url(#terminal-1550102608-line-14)">?&#160;?&#160;?</text><text class="terminal-1550102608-r1" x="61" y="361.6" textLength="134.2" clip-path="url(#terminal-1550102608-line-14)">&#160;&#160;★★★★&#160;&#160;???</text><text class="terminal-1550102608-r2" x="1000.4" y="361.6" textLength="12.2" clip-path="url(#terminal-1550102608-line-14)">
</text><text class="terminal-1550102608-r4" x="0" y="386" textLength="61" clip-path="url(#terminal-1550102608-line-15)">?&#160;?&#160;?</text><text class="terminal-1550102608-r1" x="61" y="386" textLength="134.2" clip-path="url(#terminal-1550102608-line-15)">&#160;&#160;★★★★&#160;&#160;???</text><text class="terminal-1550102608-r2" x="1000.4" y="386" textLength="12.2" clip-path="url(#terminal-1550102608-line-15)">
</text><text class="terminal-1550102608-r4" x="0" y="410.4" textLength="61" clip-path="url(#terminal-1550102608-line-16)">?&#160;?&#160;?</text><text class="terminal-1550102608-r1" x="61" y="410.4" textLength="109.8" clip-path="url(#terminal-1550102608-line-16)">&#160;&#160;★★&#160;&#160;???</text><text class="terminal-1550102608-r2" x="1000.4" y="410.4" textLength="12.2" clip-path="url(#terminal-1550102608-line-16)">
</text><text class="terminal-1550102608-r4" x="0" y="434.8" textLength="61" clip-path="url(#terminal-1550102608-line-17)">?&#160;?&#160;?</text><text class="terminal-1550102608-r1" x="61" y="434.8" textLength="134.2" clip-path="url(#terminal-1550102608-line-17)">&#160;&#160;★★★★&#160;&#160;???</text><text class="terminal-1550102608-r2" x="1000.4" y="434.8" textLength="12.2" clip-path="url(#terminal-1550102608-line-17)">
</text><text class="terminal-1550102608-r4" x="0" y="459.2" textLength="61" clip-path="url(#terminal-1550102608-line-18)">?&#160;?&#160;?</text><text class="terminal-1550102608-r1" x="61" y="459.2" textLength="122" clip-path="url(#terminal-1550102608-line-18)">&#160;&#160;★★★&#160;&#160;???</text><text class="terminal-1550102608-r2" x="1000.4" y="459.2" textLength="12.2" clip-path="url(#terminal-1550102608-line-18)">
</text><text class="terminal-1550102608-r4" x="0" y="483.6" textLength="61" clip-path="url(#terminal-1550102608-line-19)">?&#160;?&#160;?</text><text class="terminal-1550102608-r1" x="61" y="483.6" textLength="134.2" clip-path="url(#terminal-1550102608-line-19)">&#160;&#160;★★★★&#160;&#160;???</text><text class="terminal-1550102608-r2" x="1000.4" y="483.6" textLength="12.2" clip-path="url(#terminal-1550102608-line-19)">
</text><text class="terminal-1550102608-r4" x="0" y="508" textLength="61" clip-path="url(#terminal-1550102608-line-20)">?&#160;?&#160;?</text><text class="terminal-1550102608-r1" x="61" y="508" textLength="146.4" clip-path="url(#terminal-1550102608-line-20)">&#160;&#160;★★★★★&#160;&#160;???</text><text class="terminal-1550102608-r2" x="1000.4" y="508" textLength="12.2" clip-path="url(#terminal-1550102608-line-20)">
</text><text class="terminal-1550102608-r4" x="0" y="532.4" textLength="61" clip-path="url(#terminal-1550102608-line-21)">?&#160;?&#160;?</text><text class="terminal-1550102608-r1" x="61" y="532.4" textLength="146.4" clip-path="url(#terminal-1550102608-line-21)">&#160;&#160;★★★★★&#160;&#160;???</text><text class="terminal-1550102608-r2" x="1000.4" y="532.4" textLength="12.2" clip-path="url(#terminal-1550102608-line-21)">
</text><text class="terminal-1550102608-r4" x="0" y="556.8" textLength="61" clip-path="url(#terminal-1550102608-line-22)">?&#160;?&#160;?</text><text class="terminal-1550102608-r1" x="61" y="556.8" textLength="122" clip-path="url(#terminal-1550102608-line-22)">&#160;&#160;★★★&#160;&#160;???</text><text class="terminal-1550102608-r2" x="1000.4" y="556.8" textLength="12.2" clip-path="url(#terminal-1550102608-line-22)">
</text><text class="terminal-1550102608-r4" x="0" y="581.2" textLength="61" clip-path="url(#terminal-1550102608-line-23)">?&#160;?&#160;?</text><text class="terminal-1550102608-r1" x="61" y="581.2" textLength="122" clip-path="url(#terminal-1550102608-line-23)">&#160;&#160;★★★&#160;&#160;???</text><text class="terminal-1550102608-r2" x="1000.4" y="581.2" textLength="12.2" clip-path="url(#terminal-1550102608-line-23)">
</text><text class="terminal-1550102608-r4" x="0" y="605.6" textLength="61" clip-path="url(#terminal-1550102608-line-24)">?&#160;?&#160;?</text><text class="terminal-1550102608-r1" x="61" y="605.6" textLength="109.8" clip-path="url(#terminal-1550102608-line-24)">&#160;&#160;★★&#160;&#160;???</text><text class="terminal-1550102608-r2" x="1000.4" y="605.6" textLength="12.2" clip-path="url(#terminal-1550102608-line-24)">
</text><text class="terminal-1550102608-r4" x="0" y="630" textLength="61" clip-path="url(#terminal-1550102608-line-25)">?&#160;?&#160;?</text><text class="terminal-1550102608-r1" x="61" y="630" textLength="109.8" clip-path="url(#terminal-1550102608-line-25)">&#160;&#160;★★&#160;&#160;???</text><text class="terminal-1550102608-r2" x="1000.4" y="630" textLength="12.2" clip-path="url(#terminal-1550102608-line-25)">
</text><text class="terminal-1550102608-r4" x="0" y="654.4" textLength="61" clip-path="url(#terminal-1550102608-line-26)">?&#160;?&#160;?</text><text class="terminal-1550102608-r1" x="61" y="654.4" textLength="134.2" clip-path="url(#terminal-1550102608-line-26)">&#160;&#160;★★★★&#160;&#160;???</text><text class="terminal-1550102608-r2" x="1000.4" y="654.4" textLength="12.2" clip-path="url(#terminal-1550102608-line-26)">
</text><text class="terminal-1550102608-r4" x="0" y="678.8" textLength="61" clip-path="url(#terminal-1550102608-line-27)">?&#160;?&#160;?</text><text class="terminal-1550102608-r1" x="61" y="678.8" textLength="97.6" clip-path="url(#terminal-1550102608-line-27)">&#160;&#160;★&#160;&#160;???</text><text class="terminal-1550102608-r2" x="1000.4" y="678.8" textLength="12.2" clip-path="url(#terminal-1550102608-line-27)">
</text><text class="terminal-1550102608-r2" x="1000.4" y="703.2" textLength="12.2" clip-path="url(#terminal-1550102608-line-28)">
</text><text class="terminal-1550102608-r1" x="0" y="727.6" textLength="146.4" clip-path="url(#terminal-1550102608-line-29)">Esc&#160;또는&#160;q:&#160;뒤로</text><text class="terminal-1550102608-r2" x="1000.4" y="727.6" textLength="12.2" clip-path="url(#terminal-1550102608-line-29)">
</text><text class="terminal-1550102608-r2" x="1000.4" y="752" textLength="12.2" clip-path="url(#terminal-1550102608-line-30)">
</text><text class="terminal-1550102608-r2" x="1000.4" y="776.4" textLength="12.2" clip-path="url(#terminal-1550102608-line-31)">
</text><text class="terminal-1550102608-r2" x="1000.4" y="800.8" textLength="12.2" clip-path="url(#terminal-1550102608-line-32)">
</text><text class="terminal-1550102608-r2" x="1000.4" y="825.2" textLength="12.2" clip-path="url(#terminal-1550102608-line-33)">
</text><text class="terminal-1550102608-r2" x="1000.4" y="849.6" textLength="12.2" clip-path="url(#terminal-1550102608-line-34)">
</text><text class="terminal-1550102608-r2" x="1000.4" y="874" textLength="12.2" clip-path="url(#terminal-1550102608-line-35)">
</text><text class="terminal-1550102608-r2" x="1000.4" y="898.4" textLength="12.2" clip-path="url(#terminal-1550102608-line-36)">
</text><text class="terminal-1550102608-r2" x="1000.4" y="922.8" textLength="12.2" clip-path="url(#terminal-1550102608-line-37)">
</text><text class="terminal-1550102608-r2" x="1000.4" y="947.2" textLength="12.2" clip-path="url(#terminal-1550102608-line-38)">
</text><text class="terminal-1550102608-r5" x="0" y="971.6" textLength="61" clip-path="url(#terminal-1550102608-line-39)">&#160;esc&#160;</text><text class="terminal-1550102608-r1" x="61" y="971.6" textLength="36.6" clip-path="url(#terminal-1550102608-line-39)">뒤로&#160;</text><text class="terminal-1550102608-r6" x="854" y="971.6" textLength="12.2" clip-path="url(#terminal-1550102608-line-39)">▏</text><text class="terminal-1550102608-r5" x="866.2" y="971.6" textLength="24.4" clip-path="url(#terminal-1550102608-line-39)">^p</text><text class="terminal-1550102608-r1" x="890.6" y="971.6" textLength="97.6" clip-path="url(#terminal-1550102608-line-39)">&#160;palette</text>
    </g>
    </g>
</svg>
