<svg class="rich-terminal" viewBox="0 0 994 635.5999999999999" xmlns="http://www.w3.org/2000/svg">
    <!-- Generated with Rich https://www.textualize.io -->
    <style>

    @font-face {
        font-family: "Fira Code";
        src: local("FiraCode-Regular"),
                url("https://cdnjs.cloudflare.com/ajax/libs/firacode/6.2.0/woff2/FiraCode-Regular.woff2") format("woff2"),
                url("https://cdnjs.cloudflare.com/ajax/libs/firacode/6.2.0/woff/FiraCode-Regular.woff") format("woff");
        font-style: normal;
        font-weight: 400;
    }
    @font-face {
        font-family: "Fira Code";
        src: local("FiraCode-Bold"),
                url("https://cdnjs.cloudflare.com/ajax/libs/firacode/6.2.0/woff2/FiraCode-Bold.woff2") format("woff2"),
                url("https://cdnjs.cloudflare.com/ajax/libs/firacode/6.2.0/woff/FiraCode-Bold.woff") format("woff");
        font-style: bold;
        font-weight: 700;
    }

    .terminal-2281635469-matrix {
        font-family: Fira Code, monospace;
        font-size: 20px;
        line-height: 24.4px;
        font-variant-east-asian: full-width;
    }

    .terminal-2281635469-title {
        font-size: 18px;
        font-weight: bold;
        font-family: arial;
    }

    .terminal-2281635469-r1 { fill: #c5c8c6 }
.terminal-2281635469-r2 { fill: #33d9b2 }
.terminal-2281635469-r3 { fill: #f1fa8c }
.terminal-2281635469-r4 { fill: #f0f0f0 }
.terminal-2281635469-r5 { fill: #6e7d8c }
.terminal-2281635469-r6 { fill: #f0f0f0;font-weight: bold }
.terminal-2281635469-r7 { fill: #4b4b4b }
    </style>

    <defs>
    <clipPath id="terminal-2281635469-clip-terminal">
      <rect x="0" y="0" width="975.0" height="584.5999999999999" />
    </clipPath>
    <clipPath id="terminal-2281635469-line-0">
    <rect x="0" y="1.5" width="976" height="24.65"/>
            </clipPath>
<clipPath id="terminal-2281635469-line-1">
    <rect x="0" y="25.9" width="976" height="24.65"/>
            </clipPath>
<clipPath id="terminal-2281635469-line-2">
    <rect x="0" y="50.3" width="976" height="24.65"/>
            </clipPath>
<clipPath id="terminal-2281635469-line-3">
    <rect x="0" y="74.7" width="976" height="24.65"/>
            </clipPath>
<clipPath id="terminal-2281635469-line-4">
    <rect x="0" y="99.1" width="976" height="24.65"/>
            </clipPath>
<clipPath id="terminal-2281635469-line-5">
    <rect x="0" y="123.5" width="976" height="24.65"/>
            </clipPath>
<clipPath id="terminal-2281635469-line-6">
    <rect x="0" y="147.9" width="976" height="24.65"/>
            </clipPath>
<clipPath id="terminal-2281635469-line-7">
    <rect x="0" y="172.3" width="976" height="24.65"/>
            </clipPath>
<clipPath id="terminal-2281635469-line-8">
    <rect x="0" y="196.7" width="976" height="24.65"/>
            </clipPath>
<clipPath id="terminal-2281635469-line-9">
    <rect x="0" y="221.1" width="976" height="24.65"/>
            </clipPath>
<clipPath id="terminal-2281635469-line-10">
    <rect x="0" y="245.5" width="976" height="24.65"/>
            </clipPath>
<clipPath id="terminal-2281635469-line-11">
    <rect x="0" y="269.9" width="976" height="24.65"/>
            </clipPath>
<clipPath id="terminal-2281635469-line-12">
    <rect x="0" y="294.3" width="976" height="24.65"/>
            </clipPath>
<clipPath id="terminal-2281635469-line-13">
    <rect x="0" y="318.7" width="976" height="24.65"/>
            </clipPath>
<clipPath id="terminal-2281635469-line-14">
    <rect x="0" y="343.1" width="976" height="24.65"/>
            </clipPath>
<clipPath id="terminal-2281635469-line-15">
    <rect x="0" y="367.5" width="976" height="24.65"/>
            </clipPath>
<clipPath id="terminal-2281635469-line-16">
    <rect x="0" y="391.9" width="976" height="24.65"/>
            </clipPath>
<clipPath id="terminal-2281635469-line-17">
    <rect x="0" y="416.3" width="976" height="24.65"/>
            </clipPath>
<clipPath id="terminal-2281635469-line-18">
    <rect x="0" y="440.7" width="976" height="24.65"/>
            </clipPath>
<clipPath id="terminal-2281635469-line-19">
    <rect x="0" y="465.1" width="976" height="24.65"/>
            </clipPath>
<clipPath id="terminal-2281635469-line-20">
    <rect x="0" y="489.5" width="976" height="24.65"/>
            </clipPath>
<clipPath id="terminal-2281635469-line-21">
    <rect x="0" y="513.9" width="976" height="24.65"/>
            </clipPath>
<clipPath id="terminal-2281635469-line-22">
    <rect x="0" y="538.3" width="976" height="24.65"/>
            </clipPath>
    </defs>

    <rect fill="#292929" stroke="rgba(255,255,255,0.35)" stroke-width="1" x="1" y="1" width="992" height="633.6" rx="8"/><text class="terminal-2281635469-title" fill="#c5c8c6" text-anchor="middle" x="496" y="27">MulgogiApp</text>
            <g transform="translate(26,22)">
            <circle cx="0" cy="0" r="7" fill="#ff5f57"/>
            <circle cx="22" cy="0" r="7" fill="#febc2e"/>
            <circle cx="44" cy="0" r="7" fill="#28c840"/>
            </g>
        
    <g transform="translate(9, 41)" clip-path="url(#terminal-2281635469-clip-terminal)">
    <rect fill="#1e1e1e" x="0" y="1.5" width="976" height="24.65" shape-rendering="crispEdges"/><rect fill="#1e1e1e" x="0" y="25.9" width="976" height="24.65" shape-rendering="crispEdges"/><rect fill="#1e1e1e" x="0" y="50.3" width="976" height="24.65" shape-rendering="crispEdges"/><rect fill="#1e1e1e" x="0" y="74.7" width="976" height="24.65" shape-rendering="crispEdges"/><rect fill="#1e1e1e" x="0" y="99.1" width="976" height="24.65" shape-rendering="crispEdges"/><rect fill="#262626" x="0" y="123.5" width="12.2" height="24.65" shape-rendering="crispEdges"/><rect fill="#262626" x="12.2" y="123.5" width="951.6" height="24.65" shape-rendering="crispEdges"/><rect fill="#262626" x="963.8" y="123.5" width="12.2" height="24.65" shape-rendering="crispEdges"/><rect fill="#262626" x="0" y="147.9" width="12.2" height="24.65" shape-rendering="crispEdges"/><rect fill="#262626" x="12.2" y="147.9" width="951.6" height="24.65" shape-rendering="crispEdges"/><rect fill="#262626" x="963.8" y="147.9" width="12.2" height="24.65" shape-rendering="crispEdges"/><rect fill="#262626" x="0" y="172.3" width="12.2" height="24.65" shape-rendering="crispEdges"/><rect fill="#262626" x="12.2" y="172.3" width="24.4" height="24.65" shape-rendering="crispEdges"/><rect fill="#262626" x="36.6" y="172.3" width="768.6" height="24.65" shape-rendering="crispEdges"/><rect fill="#262626" x="805.2" y="172.3" width="134.2" height="24.65" shape-rendering="crispEdges"/><rect fill="#262626" x="939.4" y="172.3" width="24.4" height="24.65" shape-rendering="crispEdges"/><rect fill="#262626" x="963.8" y="172.3" width="12.2" height="24.65" shape-rendering="crispEdges"/><rect fill="#262626" x="0" y="196.7" width="12.2" height="24.65" shape-rendering="crispEdges"/><rect fill="#262626" x="12.2" y="196.7" width="24.4" height="24.65" shape-rendering="crispEdges"/><rect fill="#262626" x="36.6" y="196.7" width="488" height="24.65" shape-rendering="crispEdges"/><rect fill="#262626" x="524.6" y="196.7" width="414.8" height="24.65" shape-rendering="crispEdges"/><rect fill="#262626" x="939.4" y="196.7" width="24.4" height="24.65" shape-rendering="crispEdges"/><rect fill="#262626" x="963.8" y="196.7" width="12.2" height="24.65" shape-rendering="crispEdges"/><rect fill="#262626" x="0" y="221.1" width="12.2" height="24.65" shape-rendering="crispEdges"/><rect fill="#262626" x="12.2" y="221.1" width="24.4" height="24.65" shape-rendering="crispEdges"/><rect fill="#262626" x="36.6" y="221.1" width="207.4" height="24.65" shape-rendering="crispEdges"/><rect fill="#262626" x="244" y="221.1" width="488" height="24.65" shape-rendering="crispEdges"/><rect fill="#262626" x="732" y="221.1" width="207.4" height="24.65" shape-rendering="crispEdges"/><rect fill="#262626" x="939.4" y="221.1" width="24.4" height="24.65" shape-rendering="crispEdges"/><rect fill="#262626" x="963.8" y="221.1" width="12.2" height="24.65" shape-rendering="crispEdges"/><rect fill="#262626" x="0" y="245.5" width="12.2" height="24.65" shape-rendering="crispEdges"/><rect fill="#262626" x="12.2" y="245.5" width="24.4" height="24.65" shape-rendering="crispEdges"/><rect fill="#262626" x="36.6" y="245.5" width="207.4" height="24.65" shape-rendering="crispEdges"/><rect fill="#262626" x="244" y="245.5" width="488" height="24.65" shape-rendering="crispEdges"/><rect fill="#262626" x="732" y="245.5" width="207.4" height="24.65" shape-rendering="crispEdges"/><rect fill="#262626" x="939.4" y="245.5" width="24.4" height="24.65" shape-rendering="crispEdges"/><rect fill="#262626" x="963.8" y="245.5" width="12.2" height="24.65" shape-rendering="crispEdges"/><rect fill="#262626" x="0" y="269.9" width="12.2" height="24.65" shape-rendering="crispEdges"/><rect fill="#262626" x="12.2" y="269.9" width="24.4" height="24.65" shape-rendering="crispEdges"/><rect fill="#262626" x="36.6" y="269.9" width="207.4" height="24.65" shape-rendering="crispEdges"/><rect fill="#262626" x="244" y="269.9" width="488" height="24.65" shape-rendering="crispEdges"/><rect fill="#262626" x="732" y="269.9" width="207.4" height="24.65" shape-rendering="crispEdges"/><rect fill="#262626" x="939.4" y="269.9" width="24.4" height="24.65" shape-rendering="crispEdges"/><rect fill="#262626" x="963.8" y="269.9" width="12.2" height="24.65" shape-rendering="crispEdges"/><rect fill="#262626" x="0" y="294.3" width="12.2" height="24.65" shape-rendering="crispEdges"/><rect fill="#262626" x="12.2" y="294.3" width="24.4" height="24.65" shape-rendering="crispEdges"/><rect fill="#262626" x="36.6" y="294.3" width="207.4" height="24.65" shape-rendering="crispEdges"/><rect fill="#262626" x="244" y="294.3" width="488" height="24.65" shape-rendering="crispEdges"/><rect fill="#262626" x="732" y="294.3" width="207.4" height="24.65" shape-rendering="crispEdges"/><rect fill="#262626" x="939.4" y="294.3" width="24.4" height="24.65" shape-rendering="crispEdges"/><rect fill="#262626" x="963.8" y="294.3" width="12.2" height="24.65" shape-rendering="crispEdges"/><rect fill="#262626" x="0" y="318.7" width="12.2" height="24.65" shape-rendering="crispEdges"/><rect fill="#262626" x="12.2" y="318.7" width="24.4" height="24.65" shape-rendering="crispEdges"/><rect fill="#262626" x="36.6" y="318.7" width="207.4" height="24.65" shape-rendering="crispEdges"/><rect fill="#262626" x="244" y="318.7" width="488" height="24.65" shape-rendering="crispEdges"/><rect fill="#262626" x="732" y="318.7" width="207.4" height="24.65" shape-rendering="crispEdges"/><rect fill="#262626" x="939.4" y="318.7" width="24.4" height="24.65" shape-rendering="crispEdges"/><rect fill="#262626" x="963.8" y="318.7" width="12.2" height="24.65" shape-rendering="crispEdges"/><rect fill="#262626" x="0" y="343.1" width="12.2" height="24.65" shape-rendering="crispEdges"/><rect fill="#262626" x="12.2" y="343.1" width="24.4" height="24.65" shape-rendering="crispEdges"/><rect fill="#262626" x="36.6" y="343.1" width="451.4" height="24.65" shape-rendering="crispEdges"/><rect fill="#262626" x="488" y="343.1" width="0" height="24.65" shape-rendering="crispEdges"/><rect fill="#262626" x="488" y="343.1" width="451.4" height="24.65" shape-rendering="crispEdges"/><rect fill="#262626" x="939.4" y="343.1" width="24.4" height="24.65" shape-rendering="crispEdges"/><rect fill="#262626" x="963.8" y="343.1" width="12.2" height="24.65" shape-rendering="crispEdges"/><rect fill="#262626" x="0" y="367.5" width="12.2" height="24.65" shape-rendering="crispEdges"/><rect fill="#262626" x="12.2" y="367.5" width="24.4" height="24.65" shape-rendering="crispEdges"/><rect fill="#262626" x="36.6" y="367.5" width="158.6" height="24.65" shape-rendering="crispEdges"/><rect fill="#262626" x="195.2" y="367.5" width="585.6" height="24.65" shape-rendering="crispEdges"/><rect fill="#262626" x="780.8" y="367.5" width="158.6" height="24.65" shape-rendering="crispEdges"/><rect fill="#262626" x="939.4" y="367.5" width="24.4" height="24.65" shape-rendering="crispEdges"/><rect fill="#262626" x="963.8" y="367.5" width="12.2" height="24.65" shape-rendering="crispEdges"/><rect fill="#262626" x="0" y="391.9" width="12.2" height="24.65" shape-rendering="crispEdges"/><rect fill="#262626" x="12.2" y="391.9" width="951.6" height="24.65" shape-rendering="crispEdges"/><rect fill="#262626" x="963.8" y="391.9" width="12.2" height="24.65" shape-rendering="crispEdges"/><rect fill="#262626" x="0" y="416.3" width="12.2" height="24.65" shape-rendering="crispEdges"/><rect fill="#262626" x="12.2" y="416.3" width="951.6" height="24.65" shape-rendering="crispEdges"/><rect fill="#262626" x="963.8" y="416.3" width="12.2" height="24.65" shape-rendering="crispEdges"/><rect fill="#1e1e1e" x="0" y="440.7" width="976" height="24.65" shape-rendering="crispEdges"/><rect fill="#1e1e1e" x="0" y="465.1" width="976" height="24.65" shape-rendering="crispEdges"/><rect fill="#1e1e1e" x="0" y="489.5" width="976" height="24.65" shape-rendering="crispEdges"/><rect fill="#1e1e1e" x="0" y="513.9" width="976" height="24.65" shape-rendering="crispEdges"/><rect fill="#1e1e1e" x="0" y="538.3" width="976" height="24.65" shape-rendering="crispEdges"/><rect fill="#262626" x="0" y="562.7" width="61" height="24.65" shape-rendering="crispEdges"/><rect fill="#262626" x="61" y="562.7" width="61" height="24.65" shape-rendering="crispEdges"/><rect fill="#262626" x="122" y="562.7" width="707.6" height="24.65" shape-rendering="crispEdges"/><rect fill="#262626" x="829.6" y="562.7" width="12.2" height="24.65" shape-rendering="crispEdges"/><rect fill="#262626" x="841.8" y="562.7" width="24.4" height="24.65" shape-rendering="crispEdges"/><rect fill="#262626" x="866.2" y="562.7" width="97.6" height="24.65" shape-rendering="crispEdges"/><rect fill="#262626" x="963.8" y="562.7" width="12.2" height="24.65" shape-rendering="crispEdges"/>
    <g class="terminal-2281635469-matrix">
    <text class="terminal-2281635469-r1" x="976" y="20" textLength="12.2" clip-path="url(#terminal-2281635469-line-0)">
</text><text class="terminal-2281635469-r1" x="976" y="44.4" textLength="12.2" clip-path="url(#terminal-2281635469-line-1)">
</text><text class="terminal-2281635469-r1" x="976" y="68.8" textLength="12.2" clip-path="url(#terminal-2281635469-line-2)">
</text><text class="terminal-2281635469-r1" x="976" y="93.2" textLength="12.2" clip-path="url(#terminal-2281635469-line-3)">
</text><text class="terminal-2281635469-r1" x="976" y="117.6" textLength="12.2" clip-path="url(#terminal-2281635469-line-4)">
</text><text class="terminal-2281635469-r2" x="0" y="142" textLength="12.2" clip-path="url(#terminal-2281635469-line-5)">┌</text><text class="terminal-2281635469-r2" x="12.2" y="142" textLength="951.6" clip-path="url(#terminal-2281635469-line-5)">──────────────────────────────────────────────────────────────────────────────</text><text class="terminal-2281635469-r2" x="963.8" y="142" textLength="12.2" clip-path="url(#terminal-2281635469-line-5)">┐</text><text class="terminal-2281635469-r1" x="976" y="142" textLength="12.2" clip-path="url(#terminal-2281635469-line-5)">
</text><text class="terminal-2281635469-r2" x="0" y="166.4" textLength="12.2" clip-path="url(#terminal-2281635469-line-6)">│</text><text class="terminal-2281635469-r2" x="963.8" y="166.4" textLength="12.2" clip-path="url(#terminal-2281635469-line-6)">│</text><text class="terminal-2281635469-r1" x="976" y="166.4" textLength="12.2" clip-path="url(#terminal-2281635469-line-6)">
</text><text class="terminal-2281635469-r2" x="0" y="190.8" textLength="12.2" clip-path="url(#terminal-2281635469-line-7)">│</text><text class="terminal-2281635469-r3" x="36.6" y="190.8" textLength="512.4" clip-path="url(#terminal-2281635469-line-7)">(힘센&#160;낚시꾼)&#160;Lv.2&#160;&#160;골드:585&#160;&#160;낚싯대:대나무&#160;낚싯대&#160;&#160;미끼:지렁이</text><text class="terminal-2281635469-r2" x="963.8" y="190.8" textLength="12.2" clip-path="url(#terminal-2281635469-line-7)">│</text><text class="terminal-2281635469-r1" x="976" y="190.8" textLength="12.2" clip-path="url(#terminal-2281635469-line-7)">
</text><text class="terminal-2281635469-r2" x="0" y="215.2" textLength="12.2" clip-path="url(#terminal-2281635469-line-8)">│</text><text class="terminal-2281635469-r2" x="36.6" y="215.2" textLength="378.2" clip-path="url(#terminal-2281635469-line-8)">낚시터:&#160;연못&#160;|&#160;시간:&#160;night&#160;|&#160;날씨:&#160;rainy</text><text class="terminal-2281635469-r2" x="963.8" y="215.2" textLength="12.2" clip-path="url(#terminal-2281635469-line-8)">│</text><text class="terminal-2281635469-r1" x="976" y="215.2" textLength="12.2" clip-path="url(#terminal-2281635469-line-8)">
</text><text class="terminal-2281635469-r2" x="0" y="239.6" textLength="12.2" clip-path="url(#terminal-2281635469-line-9)">│</text><text class="terminal-2281635469-r4" x="244" y="239.6" textLength="488" clip-path="url(#terminal-2281635469-line-9)">-≈∿~~-≈∿~~-≈∿~~-≈∿~~-≈∿~~-≈∿~~-≈∿~~-≈∿~~</text><text class="terminal-2281635469-r2" x="963.8" y="239.6" textLength="12.2" clip-path="url(#terminal-2281635469-line-9)">│</text><text class="terminal-2281635469-r1" x="976" y="239.6" textLength="12.2" clip-path="url(#terminal-2281635469-line-9)">
</text><text class="terminal-2281635469-r2" x="0" y="264" textLength="12.2" clip-path="url(#terminal-2281635469-line-10)">│</text><text class="terminal-2281635469-r4" x="244" y="264" textLength="488" clip-path="url(#terminal-2281635469-line-10)">~~-≈∿~~-≈∿~~-≈∿~~-≈∿~~-≈∿~~-≈∿~~-≈∿~~-≈∿</text><text class="terminal-2281635469-r2" x="963.8" y="264" textLength="12.2" clip-path="url(#terminal-2281635469-line-10)">│</text><text class="terminal-2281635469-r1" x="976" y="264" textLength="12.2" clip-path="url(#terminal-2281635469-line-10)">
</text><text class="terminal-2281635469-r2" x="0" y="288.4" textLength="12.2" clip-path="url(#terminal-2281635469-line-11)">│</text><text class="terminal-2281635469-r4" x="244" y="288.4" textLength="488" clip-path="url(#terminal-2281635469-line-11)">≈∿~~-≈∿~~-≈∿~~-≈∿~~-≈∿~~-≈∿~~-≈∿~~-≈∿~~-</text><text class="terminal-2281635469-r2" x="963.8" y="288.4" textLength="12.2" clip-path="url(#terminal-2281635469-line-11)">│</text><text class="terminal-2281635469-r1" x="976" y="288.4" textLength="12.2" clip-path="url(#terminal-2281635469-line-11)">
</text><text class="terminal-2281635469-r2" x="0" y="312.8" textLength="12.2" clip-path="url(#terminal-2281635469-line-12)">│</text><text class="terminal-2281635469-r4" x="244" y="312.8" textLength="488" clip-path="url(#terminal-2281635469-line-12)">~-≈∿~~-≈∿~~-≈∿~~-≈∿~~-≈∿~~-≈∿~~-≈∿~~-≈∿~</text><text class="terminal-2281635469-r2" x="963.8" y="312.8" textLength="12.2" clip-path="url(#terminal-2281635469-line-12)">│</text><text class="terminal-2281635469-r1" x="976" y="312.8" textLength="12.2" clip-path="url(#terminal-2281635469-line-12)">
</text><text class="terminal-2281635469-r2" x="0" y="337.2" textLength="12.2" clip-path="url(#terminal-2281635469-line-13)">│</text><text class="terminal-2281635469-r4" x="244" y="337.2" textLength="488" clip-path="url(#terminal-2281635469-line-13)">∿~~-≈∿~~-≈∿~~-≈∿~~-≈∿~~-≈∿~~-≈∿~~-≈∿~~-≈</text><text class="terminal-2281635469-r2" x="963.8" y="337.2" textLength="12.2" clip-path="url(#terminal-2281635469-line-13)">│</text><text class="terminal-2281635469-r1" x="976" y="337.2" textLength="12.2" clip-path="url(#terminal-2281635469-line-13)">
</text><text class="terminal-2281635469-r2" x="0" y="361.6" textLength="12.2" clip-path="url(#terminal-2281635469-line-14)">│</text><text class="terminal-2281635469-r2" x="963.8" y="361.6" textLength="12.2" clip-path="url(#terminal-2281635469-line-14)">│</text><text class="terminal-2281635469-r1" x="976" y="361.6" textLength="12.2" clip-path="url(#terminal-2281635469-line-14)">
</text><text class="terminal-2281635469-r2" x="0" y="386" textLength="12.2" clip-path="url(#terminal-2281635469-line-15)">│</text><text class="terminal-2281635469-r5" x="195.2" y="386" textLength="390.4" clip-path="url(#terminal-2281635469-line-15)">물고기가&#160;물기를&#160;기다리는&#160;중...&#160;&#160;Space:&#160;입질&#160;시도</text><text class="terminal-2281635469-r2" x="963.8" y="386" textLength="12.2" clip-path="url(#terminal-2281635469-line-15)">│</text><text class="terminal-2281635469-r1" x="976" y="386" textLength="12.2" clip-path="url(#terminal-2281635469-line-15)">
</text><text class="terminal-2281635469-r2" x="0" y="410.4" textLength="12.2" clip-path="url(#terminal-2281635469-line-16)">│</text><text class="terminal-2281635469-r2" x="963.8" y="410.4" textLength="12.2" clip-path="url(#terminal-2281635469-line-16)">│</text><text class="terminal-2281635469-r1" x="976" y="410.4" textLength="12.2" clip-path="url(#terminal-2281635469-line-16)">
</text><text class="terminal-2281635469-r2" x="0" y="434.8" textLength="12.2" clip-path="url(#terminal-2281635469-line-17)">└</text><text class="terminal-2281635469-r2" x="12.2" y="434.8" textLength="951.6" clip-path="url(#terminal-2281635469-line-17)">──────────────────────────────────────────────────────────────────────────────</text><text class="terminal-2281635469-r2" x="963.8" y="434.8" textLength="12.2" clip-path="url(#terminal-2281635469-line-17)">┘</text><text class="terminal-2281635469-r1" x="976" y="434.8" textLength="12.2" clip-path="url(#terminal-2281635469-line-17)">
</text><text class="terminal-2281635469-r1" x="976" y="459.2" textLength="12.2" clip-path="url(#terminal-2281635469-line-18)">
</text><text class="terminal-2281635469-r1" x="976" y="483.6" textLength="12.2" clip-path="url(#terminal-2281635469-line-19)">
</text><text class="terminal-2281635469-r1" x="976" y="508" textLength="12.2" clip-path="url(#terminal-2281635469-line-20)">
</text><text class="terminal-2281635469-r1" x="976" y="532.4" textLength="12.2" clip-path="url(#terminal-2281635469-line-21)">
</text><text class="terminal-2281635469-r1" x="976" y="556.8" textLength="12.2" clip-path="url(#terminal-2281635469-line-22)">
</text><text class="terminal-2281635469-r6" x="0" y="581.2" textLength="61" clip-path="url(#terminal-2281635469-line-23)">&#160;esc&#160;</text><text class="terminal-2281635469-r4" x="61" y="581.2" textLength="36.6" clip-path="url(#terminal-2281635469-line-23)">뒤로&#160;</text><text class="terminal-2281635469-r7" x="829.6" y="581.2" textLength="12.2" clip-path="url(#terminal-2281635469-line-23)">▏</text><text class="terminal-2281635469-r6" x="841.8" y="581.2" textLength="24.4" clip-path="url(#terminal-2281635469-line-23)">^p</text><text class="terminal-2281635469-r4" x="866.2" y="581.2" textLength="97.6" clip-path="url(#terminal-2281635469-line-23)">&#160;palette</text>
    </g>
    </g>
</svg>
