<svg class="rich-terminal" viewBox="0 0 1019 1026.0" xmlns="http://www.w3.org/2000/svg">
    <!-- Generated with Rich https://www.textualize.io -->
    <style>

    @font-face {
        font-family: "Fira Code";
        src: local("FiraCode-Regular"),
                url("https://cdnjs.cloudflare.com/ajax/libs/firacode/6.2.0/woff2/FiraCode-Regular.woff2") format("woff2"),
                url("https://cdnjs.cloudflare.com/ajax/libs/firacode/6.2.0/woff/FiraCode-Regular.woff") format("woff");
        font-style: normal;
        font-weight: 400;
    }
    @font-face {
        font-family: "Fira Code";
        src: local("FiraCode-Bold"),
                url("https://cdnjs.cloudflare.com/ajax/libs/firacode/6.2.0/woff2/FiraCode-Bold.woff2") format("woff2"),
                url("https://cdnjs.cloudflare.com/ajax/libs/firacode/6.2.0/woff/FiraCode-Bold.woff") format("woff");
        font-style: bold;
        font-weight: 700;
    }

    .terminal-2951090265-matrix {
        font-family: Fira Code, monospace;
        font-size: 20px;
        line-height: 24.4px;
        font-variant-east-asian: full-width;
    }

    .terminal-2951090265-title {
        font-size: 18px;
        font-weight: bold;
        font-family: arial;
    }

    .terminal-2951090265-r1 { fill: #e0e0e0 }
.terminal-2951090265-r2 { fill: #c5c8c6 }
.terminal-2951090265-r3 { fill: #1e1e1e }
.terminal-2951090265-r4 { fill: #6a6a6a;font-weight: bold }
.terminal-2951090265-r5 { fill: #0f0f0f }
.terminal-2951090265-r6 { fill: #2d2d2d }
.terminal-2951090265-r7 { fill: #272727;font-weight: bold }
.terminal-2951090265-r8 { fill: #0d0d0d }
.terminal-2951090265-r9 { fill: #e0e0e0;font-weight: bold }
.terminal-2951090265-r10 { fill: #ffa62b;font-weight: bold }
.terminal-2951090265-r11 { fill: #495259 }
    </style>

    <defs>
    <clipPath id="terminal-2951090265-clip-terminal">
      <rect x="0" y="0" width="999.4" height="975.0" />
    </clipPath>
    <clipPath id="terminal-2951090265-line-0">
    <rect x="0" y="1.5" width="1000.4" height="24.65"/>
            </clipPath>
<clipPath id="terminal-2951090265-line-1">
    <rect x="0" y="25.9" width="1000.4" height="24.65"/>
            </clipPath>
<clipPath id="terminal-2951090265-line-2">
    <rect x="0" y="50.3" width="1000.4" height="24.65"/>
            </clipPath>
<clipPath id="terminal-2951090265-line-3">
    <rect x="0" y="74.7" width="1000.4" height="24.65"/>
            </clipPath>
<clipPath id="terminal-2951090265-line-4">
    <rect x="0" y="99.1" width="1000.4" height="24.65"/>
            </clipPath>
<clipPath id="terminal-2951090265-line-5">
    <rect x="0" y="123.5" width="1000.4" height="24.65"/>
            </clipPath>
<clipPath id="terminal-2951090265-line-6">
    <rect x="0" y="147.9" width="1000.4" height="24.65"/>
            </clipPath>
<clipPath id="terminal-2951090265-line-7">
    <rect x="0" y="172.3" width="1000.4" height="24.65"/>
            </clipPath>
<clipPath id="terminal-2951090265-line-8">
    <rect x="0" y="196.7" width="1000.4" height="24.65"/>
            </clipPath>
<clipPath id="terminal-2951090265-line-9">
    <rect x="0" y="221.1" width="1000.4" height="24.65"/>
            </clipPath>
<clipPath id="terminal-2951090265-line-10">
    <rect x="0" y="245.5" width="1000.4" height="24.65"/>
            </clipPath>
<clipPath id="terminal-2951090265-line-11">
    <rect x="0" y="269.9" width="1000.4" height="24.65"/>
            </clipPath>
<clipPath id="terminal-2951090265-line-12">
    <rect x="0" y="294.3" width="1000.4" height="24.65"/>
            </clipPath>
<clipPath id="terminal-2951090265-line-13">
    <rect x="0" y="318.7" width="1000.4" height="24.65"/>
            </clipPath>
<clipPath id="terminal-2951090265-line-14">
    <rect x="0" y="343.1" width="1000.4" height="24.65"/>
            </clipPath>
<clipPath id="terminal-2951090265-line-15">
    <rect x="0" y="367.5" width="1000.4" height="24.65"/>
            </clipPath>
<clipPath id="terminal-2951090265-line-16">
    <rect x="0" y="391.9" width="1000.4" height="24.65"/>
            </clipPath>
<clipPath id="terminal-2951090265-line-17">
    <rect x="0" y="416.3" width="1000.4" height="24.65"/>
            </clipPath>
<clipPath id="terminal-2951090265-line-18">
    <rect x="0" y="440.7" width="1000.4" height="24.65"/>
            </clipPath>
<clipPath id="terminal-2951090265-line-19">
    <rect x="0" y="465.1" width="1000.4" height="24.65"/>
            </clipPath>
<clipPath id="terminal-2951090265-line-20">
    <rect x="0" y="489.5" width="1000.4" height="24.65"/>
            </clipPath>
<clipPath id="terminal-2951090265-line-21">
    <rect x="0" y="513.9" width="1000.4" height="24.65"/>
            </clipPath>
<clipPath id="terminal-2951090265-line-22">
    <rect x="0" y="538.3" width="1000.4" height="24.65"/>
            </clipPath>
<clipPath id="terminal-2951090265-line-23">
    <rect x="0" y="562.7" width="1000.4" height="24.65"/>
            </clipPath>
<clipPath id="terminal-2951090265-line-24">
    <rect x="0" y="587.1" width="1000.4" height="24.65"/>
            </clipPath>
<clipPath id="terminal-2951090265-line-25">
    <rect x="0" y="611.5" width="1000.4" height="24.65"/>
            </clipPath>
<clipPath id="terminal-2951090265-line-26">
    <rect x="0" y="635.9" width="1000.4" height="24.65"/>
            </clipPath>
<clipPath id="terminal-2951090265-line-27">
    <rect x="0" y="660.3" width="1000.4" height="24.65"/>
            </clipPath>
<clipPath id="terminal-2951090265-line-28">
    <rect x="0" y="684.7" width="1000.4" height="24.65"/>
            </clipPath>
<clipPath id="terminal-2951090265-line-29">
    <rect x="0" y="709.1" width="1000.4" height="24.65"/>
            </clipPath>
<clipPath id="terminal-2951090265-line-30">
    <rect x="0" y="733.5" width="1000.4" height="24.65"/>
            </clipPath>
<clipPath id="terminal-2951090265-line-31">
    <rect x="0" y="757.9" width="1000.4" height="24.65"/>
            </clipPath>
<clipPath id="terminal-2951090265-line-32">
    <rect x="0" y="782.3" width="1000.4" height="24.65"/>
            </clipPath>
<clipPath id="terminal-2951090265-line-33">
    <rect x="0" y="806.7" width="1000.4" height="24.65"/>
            </clipPath>
<clipPath id="terminal-2951090265-line-34">
    <rect x="0" y="831.1" width="1000.4" height="24.65"/>
            </clipPath>
<clipPath id="terminal-2951090265-line-35">
    <rect x="0" y="855.5" width="1000.4" height="24.65"/>
            </clipPath>
<clipPath id="terminal-2951090265-line-36">
    <rect x="0" y="879.9" width="1000.4" height="24.65"/>
            </clipPath>
<clipPath id="terminal-2951090265-line-37">
    <rect x="0" y="904.3" width="1000.4" height="24.65"/>
            </clipPath>
<clipPath id="terminal-2951090265-line-38">
    <rect x="0" y="928.7" width="1000.4" height="24.65"/>
            </clipPath>
    </defs>

    <rect fill="#292929" stroke="rgba(255,255,255,0.35)" stroke-width="1" x="1" y="1" width="1017" height="1024" rx="8"/><text class="terminal-2951090265-title" fill="#c5c8c6" text-anchor="middle" x="508" y="27">CaptureApp</text>
            <g transform="translate(26,22)">
            <circle cx="0" cy="0" r="7" fill="#ff5f57"/>
            <circle cx="22" cy="0" r="7" fill="#febc2e"/>
            <circle cx="44" cy="0" r="7" fill="#28c840"/>
            </g>
        
    <g transform="translate(9, 41)" clip-path="url(#terminal-2951090265-clip-terminal)">
    <rect fill="#121212" x="0" y="1.5" width="48.8" height="24.65" shape-rendering="crispEdges"/><rect fill="#121212" x="48.8" y="1.5" width="951.6" height="24.65" shape-rendering="crispEdges"/><rect fill="#121212" x="0" y="25.9" width="170.8" height="24.65" shape-rendering="crispEdges"/><rect fill="#121212" x="170.8" y="25.9" width="829.6" height="24.65" shape-rendering="crispEdges"/><rect fill="#121212" x="0" y="50.3" width="0" height="24.65" shape-rendering="crispEdges"/><rect fill="#121212" x="0" y="50.3" width="1000.4" height="24.65" shape-rendering="crispEdges"/><rect fill="#121212" x="0" y="74.7" width="73.2" height="24.65" shape-rendering="crispEdges"/><rect fill="#121212" x="73.2" y="74.7" width="927.2" height="24.65" shape-rendering="crispEdges"/><rect fill="#171717" x="0" y="99.1" width="329.4" height="24.65" shape-rendering="crispEdges"/><rect fill="#121212" x="329.4" y="99.1" width="671" height="24.65" shape-rendering="crispEdges"/><rect fill="#171717" x="0" y="123.5" width="329.4" height="24.65" shape-rendering="crispEdges"/><rect fill="#121212" x="329.4" y="123.5" width="671" height="24.65" shape-rendering="crispEdges"/><rect fill="#171717" x="0" y="147.9" width="329.4" height="24.65" shape-rendering="crispEdges"/><rect fill="#121212" x="329.4" y="147.9" width="671" height="24.65" shape-rendering="crispEdges"/><rect fill="#272727" x="0" y="172.3" width="317.2" height="24.65" shape-rendering="crispEdges"/><rect fill="#121212" x="317.2" y="172.3" width="683.2" height="24.65" shape-rendering="crispEdges"/><rect fill="#e0e0e0" x="0" y="196.7" width="317.2" height="24.65" shape-rendering="crispEdges"/><rect fill="#121212" x="317.2" y="196.7" width="683.2" height="24.65" shape-rendering="crispEdges"/><rect fill="#272727" x="0" y="221.1" width="317.2" height="24.65" shape-rendering="crispEdges"/><rect fill="#121212" x="317.2" y="221.1" width="683.2" height="24.65" shape-rendering="crispEdges"/><rect fill="#1e1e1e" x="0" y="245.5" width="353.8" height="24.65" shape-rendering="crispEdges"/><rect fill="#121212" x="353.8" y="245.5" width="646.6" height="24.65" shape-rendering="crispEdges"/><rect fill="#1e1e1e" x="0" y="269.9" width="353.8" height="24.65" shape-rendering="crispEdges"/><rect fill="#121212" x="353.8" y="269.9" width="646.6" height="24.65" shape-rendering="crispEdges"/><rect fill="#1e1e1e" x="0" y="294.3" width="353.8" height="24.65" shape-rendering="crispEdges"/><rect fill="#121212" x="353.8" y="294.3" width="646.6" height="24.65" shape-rendering="crispEdges"/><rect fill="#121212" x="0" y="318.7" width="0" height="24.65" shape-rendering="crispEdges"/><rect fill="#121212" x="0" y="318.7" width="1000.4" height="24.65" shape-rendering="crispEdges"/><rect fill="#121212" x="0" y="343.1" width="48.8" height="24.65" shape-rendering="crispEdges"/><rect fill="#121212" x="48.8" y="343.1" width="951.6" height="24.65" shape-rendering="crispEdges"/><rect fill="#171717" x="0" y="367.5" width="244" height="24.65" shape-rendering="crispEdges"/><rect fill="#121212" x="244" y="367.5" width="756.4" height="24.65" shape-rendering="crispEdges"/><rect fill="#171717" x="0" y="391.9" width="244" height="24.65" shape-rendering="crispEdges"/><rect fill="#121212" x="244" y="391.9" width="756.4" height="24.65" shape-rendering="crispEdges"/><rect fill="#171717" x="0" y="416.3" width="244" height="24.65" shape-rendering="crispEdges"/><rect fill="#121212" x="244" y="416.3" width="756.4" height="24.65" shape-rendering="crispEdges"/><rect fill="#1e1e1e" x="0" y="440.7" width="244" height="24.65" shape-rendering="crispEdges"/><rect fill="#121212" x="244" y="440.7" width="756.4" height="24.65" shape-rendering="crispEdges"/><rect fill="#1e1e1e" x="0" y="465.1" width="244" height="24.65" shape-rendering="crispEdges"/><rect fill="#121212" x="244" y="465.1" width="756.4" height="24.65" shape-rendering="crispEdges"/><rect fill="#1e1e1e" x="0" y="489.5" width="244" height="24.65" shape-rendering="crispEdges"/><rect fill="#121212" x="244" y="489.5" width="756.4" height="24.65" shape-rendering="crispEdges"/><rect fill="#1e1e1e" x="0" y="513.9" width="195.2" height="24.65" shape-rendering="crispEdges"/><rect fill="#121212" x="195.2" y="513.9" width="805.2" height="24.65" shape-rendering="crispEdges"/><rect fill="#1e1e1e" x="0" y="538.3" width="195.2" height="24.65" shape-rendering="crispEdges"/><rect fill="#121212" x="195.2" y="538.3" width="805.2" height="24.65" shape-rendering="crispEdges"/><rect fill="#1e1e1e" x="0" y="562.7" width="195.2" height="24.65" shape-rendering="crispEdges"/><rect fill="#121212" x="195.2" y="562.7" width="805.2" height="24.65" shape-rendering="crispEdges"/><rect fill="#1e1e1e" x="0" y="587.1" width="280.6" height="24.65" shape-rendering="crispEdges"/><rect fill="#121212" x="280.6" y="587.1" width="719.8" height="24.65" shape-rendering="crispEdges"/><rect fill="#1e1e1e" x="0" y="611.5" width="280.6" height="24.65" shape-rendering="crispEdges"/><rect fill="#121212" x="280.6" y="611.5" width="719.8" height="24.65" shape-rendering="crispEdges"/><rect fill="#1e1e1e" x="0" y="635.9" width="280.6" height="24.65" shape-rendering="crispEdges"/><rect fill="#121212" x="280.6" y="635.9" width="719.8" height="24.65" shape-rendering="crispEdges"/><rect fill="#1e1e1e" x="0" y="660.3" width="268.4" height="24.65" shape-rendering="crispEdges"/><rect fill="#121212" x="268.4" y="660.3" width="732" height="24.65" shape-rendering="crispEdges"/><rect fill="#1e1e1e" x="0" y="684.7" width="268.4" height="24.65" shape-rendering="crispEdges"/><rect fill="#121212" x="268.4" y="684.7" width="732" height="24.65" shape-rendering="crispEdges"/><rect fill="#1e1e1e" x="0" y="709.1" width="268.4" height="24.65" shape-rendering="crispEdges"/><rect fill="#121212" x="268.4" y="709.1" width="732" height="24.65" shape-rendering="crispEdges"/><rect fill="#121212" x="0" y="733.5" width="0" height="24.65" shape-rendering="crispEdges"/><rect fill="#121212" x="0" y="733.5" width="1000.4" height="24.65" shape-rendering="crispEdges"/><rect fill="#121212" x="0" y="757.9" width="0" height="24.65" shape-rendering="crispEdges"/><rect fill="#121212" x="0" y="757.9" width="1000.4" height="24.65" shape-rendering="crispEdges"/><rect fill="#121212" x="0" y="782.3" width="195.2" height="24.65" shape-rendering="crispEdges"/><rect fill="#121212" x="195.2" y="782.3" width="805.2" height="24.65" shape-rendering="crispEdges"/><rect fill="#121212" x="0" y="806.7" width="1000.4" height="24.65" shape-rendering="crispEdges"/><rect fill="#121212" x="0" y="831.1" width="1000.4" height="24.65" shape-rendering="crispEdges"/><rect fill="#121212" x="0" y="855.5" width="1000.4" height="24.65" shape-rendering="crispEdges"/><rect fill="#121212" x="0" y="879.9" width="1000.4" height="24.65" shape-rendering="crispEdges"/><rect fill="#121212" x="0" y="904.3" width="1000.4" height="24.65" shape-rendering="crispEdges"/><rect fill="#121212" x="0" y="928.7" width="1000.4" height="24.65" shape-rendering="crispEdges"/><rect fill="#242f38" x="0" y="953.1" width="61" height="24.65" shape-rendering="crispEdges"/><rect fill="#242f38" x="61" y="953.1" width="61" height="24.65" shape-rendering="crispEdges"/><rect fill="#242f38" x="122" y="953.1" width="732" height="24.65" shape-rendering="crispEdges"/><rect fill="#242f38" x="854" y="953.1" width="12.2" height="24.65" shape-rendering="crispEdges"/><rect fill="#242f38" x="866.2" y="953.1" width="24.4" height="24.65" shape-rendering="crispEdges"/><rect fill="#242f38" x="890.6" y="953.1" width="97.6" height="24.65" shape-rendering="crispEdges"/><rect fill="#242f38" x="988.2" y="953.1" width="12.2" height="24.65" shape-rendering="crispEdges"/>
    <g class="terminal-2951090265-matrix">
    <text class="terminal-2951090265-r1" x="0" y="20" textLength="24.4" clip-path="url(#terminal-2951090265-line-0)">상점</text><text class="terminal-2951090265-r2" x="1000.4" y="20" textLength="12.2" clip-path="url(#terminal-2951090265-line-0)">
</text><text class="terminal-2951090265-r1" x="0" y="44.4" textLength="122" clip-path="url(#terminal-2951090265-line-1)">보유&#160;골드:&#160;585</text><text class="terminal-2951090265-r2" x="1000.4" y="44.4" textLength="12.2" clip-path="url(#terminal-2951090265-line-1)">
</text><text class="terminal-2951090265-r2" x="1000.4" y="68.8" textLength="12.2" clip-path="url(#terminal-2951090265-line-2)">
</text><text class="terminal-2951090265-r1" x="0" y="93.2" textLength="36.6" clip-path="url(#terminal-2951090265-line-3)">낚싯대</text><text class="terminal-2951090265-r2" x="1000.4" y="93.2" textLength="12.2" clip-path="url(#terminal-2951090265-line-3)">
</text><text class="terminal-2951090265-r3" x="0" y="117.6" textLength="329.4" clip-path="url(#terminal-2951090265-line-4)">▔▔▔▔▔▔▔▔▔▔▔▔▔▔▔▔▔▔▔▔▔▔▔▔▔▔▔</text><text class="terminal-2951090265-r2" x="1000.4" y="117.6" textLength="12.2" clip-path="url(#terminal-2951090265-line-4)">
</text><text class="terminal-2951090265-r4" x="0" y="142" textLength="219.6" clip-path="url(#terminal-2951090265-line-5)">&#160;대나무&#160;낚싯대&#160;-&#160;(소유&#160;중)&#160;</text><text class="terminal-2951090265-r2" x="1000.4" y="142" textLength="12.2" clip-path="url(#terminal-2951090265-line-5)">
</text><text class="terminal-2951090265-r5" x="0" y="166.4" textLength="329.4" clip-path="url(#terminal-2951090265-line-6)">▁▁▁▁▁▁▁▁▁▁▁▁▁▁▁▁▁▁▁▁▁▁▁▁▁▁▁</text><text class="terminal-2951090265-r2" x="1000.4" y="166.4" textLength="12.2" clip-path="url(#terminal-2951090265-line-6)">
</text><text class="terminal-2951090265-r6" x="0" y="190.8" textLength="317.2" clip-path="url(#terminal-2951090265-line-7)">▔▔▔▔▔▔▔▔▔▔▔▔▔▔▔▔▔▔▔▔▔▔▔▔▔▔</text><text class="terminal-2951090265-r2" x="1000.4" y="190.8" textLength="12.2" clip-path="url(#terminal-2951090265-line-7)">
</text><text class="terminal-2951090265-r7" x="0" y="215.2" textLength="219.6" clip-path="url(#terminal-2951090265-line-8)">&#160;카보난&#160;낚싯대&#160;-&#160;500&#160;골드&#160;</text><text class="terminal-2951090265-r2" x="1000.4" y="215.2" textLength="12.2" clip-path="url(#terminal-2951090265-line-8)">
</text><text class="terminal-2951090265-r8" x="0" y="239.6" textLength="317.2" clip-path="url(#terminal-2951090265-line-9)">▁▁▁▁▁▁▁▁▁▁▁▁▁▁▁▁▁▁▁▁▁▁▁▁▁▁</text><text class="terminal-2951090265-r2" x="1000.4" y="239.6" textLength="12.2" clip-path="url(#terminal-2951090265-line-9)">
</text><text class="terminal-2951090265-r6" x="0" y="264" textLength="353.8" clip-path="url(#terminal-2951090265-line-10)">▔▔▔▔▔▔▔▔▔▔▔▔▔▔▔▔▔▔▔▔▔▔▔▔▔▔▔▔▔</text><text class="terminal-2951090265-r2" x="1000.4" y="264" textLength="12.2" clip-path="url(#terminal-2951090265-line-10)">
</text><text class="terminal-2951090265-r9" x="0" y="288.4" textLength="244" clip-path="url(#terminal-2951090265-line-11)">&#160;티타니엄&#160;낚싯대&#160;-&#160;2000&#160;골드&#160;</text><text class="terminal-2951090265-r2" x="1000.4" y="288.4" textLength="12.2" clip-path="url(#terminal-2951090265-line-11)">
</text><text class="terminal-2951090265-r8" x="0" y="312.8" textLength="353.8" clip-path="url(#terminal-2951090265-line-12)">▁▁▁▁▁▁▁▁▁▁▁▁▁▁▁▁▁▁▁▁▁▁▁▁▁▁▁▁▁</text><text class="terminal-2951090265-r2" x="1000.4" y="312.8" textLength="12.2" clip-path="url(#terminal-2951090265-line-12)">
</text><text class="terminal-2951090265-r2" x="1000.4" y="337.2" textLength="12.2" clip-path="url(#terminal-2951090265-line-13)">
</text><text class="terminal-2951090265-r1" x="0" y="361.6" textLength="24.4" clip-path="url(#terminal-2951090265-line-14)">미끼</text><text class="terminal-2951090265-r2" x="1000.4" y="361.6" textLength="12.2" clip-path="url(#terminal-2951090265-line-14)">
</text><text class="terminal-2951090265-r3" x="0" y="386" textLength="244" clip-path="url(#terminal-2951090265-line-15)">▔▔▔▔▔▔▔▔▔▔▔▔▔▔▔▔▔▔▔▔</text><text class="terminal-2951090265-r2" x="1000.4" y="386" textLength="12.2" clip-path="url(#terminal-2951090265-line-15)">
</text><text class="terminal-2951090265-r4" x="0" y="410.4" textLength="170.8" clip-path="url(#terminal-2951090265-line-16)">&#160;지렁이&#160;-&#160;(장비&#160;중)&#160;</text><text class="terminal-2951090265-r2" x="1000.4" y="410.4" textLength="12.2" clip-path="url(#terminal-2951090265-line-16)">
</text><text class="terminal-2951090265-r5" x="0" y="434.8" textLength="244" clip-path="url(#terminal-2951090265-line-17)">▁▁▁▁▁▁▁▁▁▁▁▁▁▁▁▁▁▁▁▁</text><text class="terminal-2951090265-r2" x="1000.4" y="434.8" textLength="12.2" clip-path="url(#terminal-2951090265-line-17)">
</text><text class="terminal-2951090265-r6" x="0" y="459.2" textLength="244" clip-path="url(#terminal-2951090265-line-18)">▔▔▔▔▔▔▔▔▔▔▔▔▔▔▔▔▔▔▔▔</text><text class="terminal-2951090265-r2" x="1000.4" y="459.2" textLength="12.2" clip-path="url(#terminal-2951090265-line-18)">
</text><text class="terminal-2951090265-r9" x="0" y="483.6" textLength="170.8" clip-path="url(#terminal-2951090265-line-19)">&#160;귀뚜라미&#160;-&#160;15&#160;골드&#160;</text><text class="terminal-2951090265-r2" x="1000.4" y="483.6" textLength="12.2" clip-path="url(#terminal-2951090265-line-19)">
</text><text class="terminal-2951090265-r8" x="0" y="508" textLength="244" clip-path="url(#terminal-2951090265-line-20)">▁▁▁▁▁▁▁▁▁▁▁▁▁▁▁▁▁▁▁▁</text><text class="terminal-2951090265-r2" x="1000.4" y="508" textLength="12.2" clip-path="url(#terminal-2951090265-line-20)">
</text><text class="terminal-2951090265-r6" x="0" y="532.4" textLength="195.2" clip-path="url(#terminal-2951090265-line-21)">▔▔▔▔▔▔▔▔▔▔▔▔▔▔▔▔</text><text class="terminal-2951090265-r2" x="1000.4" y="532.4" textLength="12.2" clip-path="url(#terminal-2951090265-line-21)">
</text><text class="terminal-2951090265-r9" x="0" y="556.8" textLength="146.4" clip-path="url(#terminal-2951090265-line-22)">&#160;새우&#160;-&#160;40&#160;골드&#160;</text><text class="terminal-2951090265-r2" x="1000.4" y="556.8" textLength="12.2" clip-path="url(#terminal-2951090265-line-22)">
</text><text class="terminal-2951090265-r8" x="0" y="581.2" textLength="195.2" clip-path="url(#terminal-2951090265-line-23)">▁▁▁▁▁▁▁▁▁▁▁▁▁▁▁▁</text><text class="terminal-2951090265-r2" x="1000.4" y="581.2" textLength="12.2" clip-path="url(#terminal-2951090265-line-23)">
</text><text class="terminal-2951090265-r6" x="0" y="605.6" textLength="280.6" clip-path="url(#terminal-2951090265-line-24)">▔▔▔▔▔▔▔▔▔▔▔▔▔▔▔▔▔▔▔▔▔▔▔</text><text class="terminal-2951090265-r2" x="1000.4" y="605.6" textLength="12.2" clip-path="url(#terminal-2951090265-line-24)">
</text><text class="terminal-2951090265-r9" x="0" y="630" textLength="195.2" clip-path="url(#terminal-2951090265-line-25)">&#160;오징어&#160;미끼&#160;-&#160;80&#160;골드&#160;</text><text class="terminal-2951090265-r2" x="1000.4" y="630" textLength="12.2" clip-path="url(#terminal-2951090265-line-25)">
</text><text class="terminal-2951090265-r8" x="0" y="654.4" textLength="280.6" clip-path="url(#terminal-2951090265-line-26)">▁▁▁▁▁▁▁▁▁▁▁▁▁▁▁▁▁▁▁▁▁▁▁</text><text class="terminal-2951090265-r2" x="1000.4" y="654.4" textLength="12.2" clip-path="url(#terminal-2951090265-line-26)">
</text><text class="terminal-2951090265-r6" x="0" y="678.8" textLength="268.4" clip-path="url(#terminal-2951090265-line-27)">▔▔▔▔▔▔▔▔▔▔▔▔▔▔▔▔▔▔▔▔▔▔</text><text class="terminal-2951090265-r2" x="1000.4" y="678.8" textLength="12.2" clip-path="url(#terminal-2951090265-line-27)">
</text><text class="terminal-2951090265-r9" x="0" y="703.2" textLength="195.2" clip-path="url(#terminal-2951090265-line-28)">&#160;황금&#160;미끼&#160;-&#160;200&#160;골드&#160;</text><text class="terminal-2951090265-r2" x="1000.4" y="703.2" textLength="12.2" clip-path="url(#terminal-2951090265-line-28)">
</text><text class="terminal-2951090265-r8" x="0" y="727.6" textLength="268.4" clip-path="url(#terminal-2951090265-line-29)">▁▁▁▁▁▁▁▁▁▁▁▁▁▁▁▁▁▁▁▁▁▁</text><text class="terminal-2951090265-r2" x="1000.4" y="727.6" textLength="12.2" clip-path="url(#terminal-2951090265-line-29)">
</text><text class="terminal-2951090265-r2" x="1000.4" y="752" textLength="12.2" clip-path="url(#terminal-2951090265-line-30)">
</text><text class="terminal-2951090265-r2" x="1000.4" y="776.4" textLength="12.2" clip-path="url(#terminal-2951090265-line-31)">
</text><text class="terminal-2951090265-r1" x="0" y="800.8" textLength="146.4" clip-path="url(#terminal-2951090265-line-32)">Esc&#160;또는&#160;q:&#160;뒤로</text><text class="terminal-2951090265-r2" x="1000.4" y="800.8" textLength="12.2" clip-path="url(#terminal-2951090265-line-32)">
</text><text class="terminal-2951090265-r2" x="1000.4" y="825.2" textLength="12.2" clip-path="url(#terminal-2951090265-line-33)">
</text><text class="terminal-2951090265-r2" x="1000.4" y="849.6" textLength="12.2" clip-path="url(#terminal-2951090265-line-34)">
</text><text class="terminal-2951090265-r2" x="1000.4" y="874" textLength="12.2" clip-path="url(#terminal-2951090265-line-35)">
</text><text class="terminal-2951090265-r2" x="1000.4" y="898.4" textLength="12.2" clip-path="url(#terminal-2951090265-line-36)">
</text><text class="terminal-2951090265-r2" x="1000.4" y="922.8" textLength="12.2" clip-path="url(#terminal-2951090265-line-37)">
</text><text class="terminal-2951090265-r2" x="1000.4" y="947.2" textLength="12.2" clip-path="url(#terminal-2951090265-line-38)">
</text><text class="terminal-2951090265-r10" x="0" y="971.6" textLength="61" clip-path="url(#terminal-2951090265-line-39)">&#160;esc&#160;</text><text class="terminal-2951090265-r1" x="61" y="971.6" textLength="36.6" clip-path="url(#terminal-2951090265-line-39)">뒤로&#160;</text><text class="terminal-2951090265-r11" x="854" y="971.6" textLength="12.2" clip-path="url(#terminal-2951090265-line-39)">▏</text><text class="terminal-2951090265-r10" x="866.2" y="971.6" textLength="24.4" clip-path="url(#terminal-2951090265-line-39)">^p</text><text class="terminal-2951090265-r1" x="890.6" y="971.6" textLength="97.6" clip-path="url(#terminal-2951090265-line-39)">&#160;palette</text>
    </g>
    </g>
</svg>
